<?xml version="1.0" encoding="UTF-8" standalone="no"?>
<!-- Created with Inkscape (http://www.inkscape.org/) -->

<svg
   width="512"
   height="512"
   viewBox="0 0 512 512"
   version="1.1"
   id="svg1"
   inkscape:version="1.3.2 (091e20e, 2023-11-25, custom)"
   sodipodi:docname="knuckles-sharp.svg"
   xmlns:inkscape="http://www.inkscape.org/namespaces/inkscape"
   xmlns:sodipodi="http://sodipodi.sourceforge.net/DTD/sodipodi-0.dtd"
   xmlns:xlink="http://www.w3.org/1999/xlink"
   xmlns="http://www.w3.org/2000/svg"
   xmlns:svg="http://www.w3.org/2000/svg">
  <sodipodi:namedview
     id="namedview1"
     pagecolor="#ffffff"
     bordercolor="#000000"
     borderopacity="0.25"
     inkscape:showpageshadow="2"
     inkscape:pageopacity="0.0"
     inkscape:pagecheckerboard="0"
     inkscape:deskcolor="#d1d1d1"
     inkscape:document-units="px"
     showguides="true"
     inkscape:zoom="1.4778115"
     inkscape:cx="256.79865"
     inkscape:cy="266.9488"
     inkscape:window-width="2560"
     inkscape:window-height="1369"
     inkscape:window-x="-8"
     inkscape:window-y="-8"
     inkscape:window-maximized="1"
     inkscape:current-layer="layer1" />
  <defs
     id="defs1">
    <inkscape:path-effect
       effect="fillet_chamfer"
       id="path-effect8"
       is_visible="true"
       lpeversion="1"
       nodesatellites_param="F,0,0,1,0,10,0,1 @ F,0,0,1,0,10,0,1 @ F,0,0,1,0,10,0,1 @ F,0,0,1,0,10,0,1 @ F,0,0,1,0,10,0,1 @ F,0,0,1,0,10,0,1 @ F,0,0,1,0,10,0,1 @ F,0,0,1,0,10,0,1"
       radius="10"
       unit="px"
       method="auto"
       mode="F"
       chamfer_steps="1"
       flexible="false"
       use_knot_distance="true"
       apply_no_radius="true"
       apply_with_radius="true"
       only_selected="false"
       hide_knots="false" />
    <linearGradient
       id="linearGradient7"
       inkscape:collect="always">
      <stop
         style="stop-color:#d72a08;stop-opacity:1"
         offset="0"
         id="stop7" />
      <stop
         style="stop-color:#d72a08;stop-opacity:1"
         offset="0.5"
         id="stop9" />
      <stop
         style="stop-color:#f52d0c;stop-opacity:1"
         offset="0.5"
         id="stop10" />
      <stop
         style="stop-color:#f52d0c;stop-opacity:1"
         offset="1"
         id="stop8" />
    </linearGradient>
    <inkscape:path-effect
       effect="fillet_chamfer"
       id="path-effect6"
       is_visible="true"
       lpeversion="1"
       nodesatellites_param="F,0,0,1,0,10,0,1 @ F,0,0,1,0,10,0,1 @ F,0,0,1,0,10,0,1 @ F,0,0,1,0,10,0,1 @ F,0,0,1,0,10,0,1 @ F,0,0,1,0,10,0,1 @ F,0,0,1,0,10,0,1 @ F,0,0,1,0,10,0,1"
       radius="10"
       unit="px"
       method="auto"
       mode="F"
       chamfer_steps="1"
       flexible="false"
       use_knot_distance="true"
       apply_no_radius="true"
       apply_with_radius="true"
       only_selected="false"
       hide_knots="false" />
    <inkscape:path-effect
       effect="fillet_chamfer"
       id="path-effect5"
       is_visible="true"
       lpeversion="1"
       nodesatellites_param="F,0,0,1,0,0,0,1 @ F,0,0,1,0,0,0,1 @ F,0,0,1,0,0,0,1 @ F,0,0,1,0,0,0,1 @ F,0,0,1,0,0,0,1 | F,0,0,1,0,0,0,1 @ F,0,0,1,0,0,0,1 @ F,0,0,1,0,0,0,1 @ F,0,0,1,0,0,0,1 @ F,0,0,1,0,0,0,1"
       radius="0"
       unit="px"
       method="auto"
       mode="F"
       chamfer_steps="1"
       flexible="false"
       use_knot_distance="true"
       apply_no_radius="true"
       apply_with_radius="true"
       only_selected="false"
       hide_knots="false" />
    <inkscape:path-effect
       effect="fillet_chamfer"
       id="path-effect4"
       is_visible="true"
       lpeversion="1"
       nodesatellites_param="F,0,0,1,0,0,0,1 @ F,0,0,1,0,0,0,1 @ F,0,0,1,0,0,0,1 @ F,0,0,1,0,0,0,1 @ F,0,0,1,0,0,0,1 | F,0,0,1,0,0,0,1 @ F,0,0,1,0,0,0,1 @ F,0,0,1,0,0,0,1 @ F,0,0,1,0,0,0,1 @ F,0,0,1,0,0,0,1"
       radius="0"
       unit="px"
       method="auto"
       mode="F"
       chamfer_steps="1"
       flexible="false"
       use_knot_distance="true"
       apply_no_radius="true"
       apply_with_radius="true"
       only_selected="false"
       hide_knots="false" />
    <inkscape:path-effect
       effect="mirror_symmetry"
       start_point="256,59.810299"
       end_point="256,465.14464"
       center_point="256,262.47747"
       id="path-effect3"
       is_visible="true"
       lpeversion="1.2"
       lpesatellites=""
       mode="free"
       discard_orig_path="false"
       fuse_paths="false"
       oposite_fuse="false"
       split_items="false"
       split_open="false"
       link_styles="false" />
    <inkscape:path-effect
       effect="mirror_symmetry"
       start_point="256,59.810293"
       end_point="256,430.63415"
       center_point="256,245.22222"
       id="path-effect2"
       is_visible="true"
       lpeversion="1.2"
       lpesatellites=""
       mode="free"
       discard_orig_path="false"
       fuse_paths="false"
       oposite_fuse="false"
       split_items="false"
       split_open="false"
       link_styles="false" />
    <linearGradient
       inkscape:collect="always"
       xlink:href="#linearGradient7"
       id="linearGradient9"
       gradientUnits="userSpaceOnUse"
       x1="68.669478"
       y1="263.19888"
       x2="443.33052"
       y2="263.19888" />
  </defs>
  <g
     inkscape:label="Lager 1"
     inkscape:groupmode="layer"
     id="layer1">
    <path
       id="path2"
       style="fill:url(#linearGradient9)"
       d="m 247.71402,65.397809 c -9.50437,5.729122 -27.52328,14.910625 -55.78348,22.927474 -5.3129,1.507166 -13.99813,3.70324 -19.41356,4.784258 -36.97747,7.381389 -76.144943,5.004989 -94.017291,3.269563 -5.496213,-0.533689 -9.927276,3.336608 -9.828594,8.858506 0.738659,41.33281 6.651224,199.67594 53.754265,263.71417 3.27082,4.44679 9.33448,11.05555 13.1728,15.02633 45.02214,46.57588 91.67972,69.41013 111.07866,77.55564 5.09113,2.13773 13.55533,2.1377 18.64656,-9e-5 19.39909,-8.14559 66.05659,-30.97989 111.07861,-77.55571 3.83823,-3.9707 9.90188,-10.57943 13.17275,-15.02631 47.10302,-64.0384 53.01552,-222.38168 53.75416,-263.7142 0.0987,-5.521804 -4.33271,-9.39198 -9.82933,-8.858264 -17.87281,1.735431 -57.0401,4.111684 -94.01728,-3.26978 -5.41502,-1.080957 -14.10001,-3.276967 -19.41301,-4.784164 -28.26025,-8.016882 -46.27915,-17.198417 -55.78346,-22.92752 -4.72693,-2.849342 -11.84478,-2.849291 -16.5718,9.7e-5 z"
       transform="matrix(1.1981217,0,0,1.1981217,-50.719158,-59.344294)"
       inkscape:original-d="m 256,59.810547 c 0,0 -21.73113,17.974397 -73.72852,31.101562 -52.42569,13.235301 -113.705074,4.326172 -113.705074,4.326172 0,0 -0.583594,214.944129 60.183594,281.453129 60.7672,66.50898 127.25,88.45312 127.25,88.45312 0,0 66.4828,-21.94414 127.25,-88.45312 60.76719,-66.509 60.18359,-281.453129 60.18359,-281.453129 0,0 -61.27938,8.909129 -113.70507,-4.326172 C 277.73113,77.784944 256,59.810547 256,59.810547 Z"
       inkscape:path-effect="#path-effect6" />
    <path
       style="font-size:297.869px;font-family:'Segoe UI';-inkscape-font-specification:'Segoe UI';letter-spacing:-18.6168px;fill:#faaa9b;fill-opacity:1;stroke:#faaa9b;stroke-width:8.07327;stroke-dasharray:none;stroke-opacity:1"
       d="m 414.70896,311.6203 q -0.14677,2.49518 -0.44032,6.75168 -0.14678,0.73388 -0.29355,1.46776 0,0.73388 -0.14678,1.32099 -1.32097,11.00817 -6.45813,20.69538 -3.0823,5.57748 -7.63235,9.98075 -8.51299,9.54043 -20.69537,13.20983 -0.73388,0.29354 -1.46776,0.58709 -0.73388,0.29355 -1.46776,0.5871 l -80.72668,27.88741 q -10.71463,4.40327 -22.16315,4.1097 -11.4485,-0.29354 -21.86958,-5.13714 -16.87921,-8.36622 -23.77768,-25.97931 -0.14678,0 -0.29355,0 0,0 -0.14678,0 h -0.14677 q -6.16458,0.73388 -12.47595,0.73388 -16.73242,-0.73388 -28.76805,-12.62272 -3.6694,-3.52261 -6.75168,-7.77911 -3.37585,2.93551 -7.19201,4.99037 -12.62272,6.75169 -26.71319,4.8436 -11.44851,-0.29355 -21.57604,-5.87102 -9.98075,-5.4307 -16.43889,-14.82436 -11.301729,-21.1357 -9.540429,-45.06016 v -70.74593 q -0.146776,-15.11791 7.192019,-28.4745 7.33879,-13.3566 20.25506,-21.42926 h 0.14676 l 0.14679,-0.14678 q 7.63234,-3.96294 15.85178,-6.6049 12.32916,-2.78875 21.72282,-11.30174 11.00818,-11.74206 25.97931,-17.61309 14.97112,-5.87103 30.96969,-4.69683 17.61309,0.88065 32.87776,-8.07267 14.23726,-8.21944 30.82292,-8.65977 19.9615,1.02744 37.57459,10.86141 1.61454,0.73388 2.78876,1.32099 1.32097,0.58709 2.3484,1.02742 1.17421,0.58711 1.76131,0.73388 l 0.44032,0.14678 h 0.14679 q 10.56784,1.46776 21.1357,0.29354 2.78874,-0.14677 5.72426,-0.29354 2.93552,-0.14678 5.72425,-0.14678 11.15496,-0.44033 21.28249,4.10972 10.12753,4.55006 17.31954,13.06304 13.65015,17.46632 13.06305,39.77623 l 1.90808,124.61265 v 1.1742 q 0,0.29354 0,0.58711 0,0.29355 0,0.5871 z m -214.4394,28.18094 q 5.87103,6.01781 14.23724,6.89848 8.51301,0.14676 16.87921,-2.05488 0.88067,-0.14676 1.46776,-0.14676 4.55006,-2.20164 7.19202,-6.45814 4.69682,-6.89846 5.28393,-15.41145 0,-0.29356 0,-0.58711 0,-0.44033 0,-0.88065 0,-0.58711 0.14677,-1.17421 V 213.13376 q 0,-4.40328 3.0823,-7.48558 3.08228,-3.08228 7.48556,-3.08228 4.40328,0 7.48557,3.08228 3.08229,3.0823 3.08229,7.48558 v 108.02697 q 0,0.58709 -0.14678,1.1742 0,0.44033 0,1.02742 -0.44033,4.84361 1.32098,9.54043 1.7613,4.55005 5.28394,7.9259 10.42107,6.31135 22.45668,5.13716 5.43071,0.29354 10.27431,-2.05488 4.99037,-2.20164 8.21944,-6.45813 5.72426,-7.04523 6.16459,-16.2921 V 213.13376 q 0,-4.40328 3.08228,-7.48558 3.0823,-3.08228 7.48558,-3.08228 4.40326,0 7.48556,3.08228 3.08228,3.0823 3.08228,7.48558 v 95.40425 q 0.14679,0.44032 0.14679,0.88065 -0.73388,12.18239 3.96294,23.48412 2.05485,4.69683 6.31136,7.48557 6.16458,3.52261 13.20982,3.08229 8.51299,0.44032 15.99855,-3.6694 1.90809,-1.1742 3.52262,-2.78873 6.89846,-8.21945 8.513,-18.7873 0.14677,-1.61454 0.29355,-2.49519 0.14678,-2.34842 0.14678,-3.96294 0.14677,-0.73388 0.14677,-2.20164 L 391.66516,184.9528 v -0.14677 q 0.58712,-14.67758 -8.21944,-26.41963 -4.10971,-4.84361 -9.98075,-7.3388 -5.87103,-2.64197 -12.32917,-2.20163 -2.20164,0 -4.69682,0.14677 -2.49519,0 -5.4307,0.29355 -13.3566,1.32098 -26.56642,-0.73388 -6.60491,-1.76131 -12.62272,-4.99037 -13.20982,-7.63234 -28.32772,-8.65977 -11.59528,0.5871 -21.42926,6.45813 -20.10829,11.44851 -43.15208,10.2743 -11.15496,-0.88065 -21.57604,2.93552 -10.42108,3.81618 -18.34697,11.74205 -13.06305,13.20983 -30.96969,17.75988 -6.45813,2.05485 -12.47593,5.13715 l -0.29356,0.14677 q -7.9259,5.28394 -12.32916,13.65015 -4.40328,8.36622 -4.25651,17.75987 v 70.74593 q -1.46774,17.61309 6.16459,33.75842 3.96294,5.28392 9.83397,8.07268 5.87104,2.93551 13.50338,3.22906 7.63234,0.29355 13.50337,-2.64197 4.69682,-2.93552 8.07267,-7.04523 0.14677,-0.29356 0.44032,-0.58711 0.44032,-0.44033 0.73388,-0.73388 v -95.99135 q 0,-4.25649 3.08229,-7.48557 3.08229,-3.08229 7.48557,-3.08229 4.40327,0 7.48556,3.08229 3.0823,3.22908 3.0823,7.48557 v 97.16556 q 0.29354,0.5871 0.5871,1.32098 2.05485,7.04524 7.63234,11.74206 z m 88.21224,34.34553 v 0 l 50.05054,-17.31954 q -4.10973,-2.93551 -7.33879,-7.04523 -0.14678,0.29354 -0.29355,0.44033 -0.14677,0.29355 -0.29356,0.44033 -6.45813,8.07266 -15.705,12.32915 -9.1001,4.40328 -19.37441,4.10973 -19.3744,1.32098 -35.51974,-9.6872 -2.49518,-2.05486 -4.55004,-4.55004 -3.37584,4.25649 -7.92589,7.48555 4.10971,9.24687 13.06304,13.79692 6.60491,2.93552 13.79692,2.93552 7.19202,0 13.79693,-2.78874 z"
       id="text10"
       aria-label="👊" />
    <text
       xml:space="preserve"
       style="font-size:227.5px;letter-spacing:-14.2187px;fill:#fb00fe;fill-opacity:1;fill-rule:nonzero;stroke-width:7.10938"
       x="277.86142"
       y="324.69867"
       id="text11"><tspan
         sodipodi:role="line"
         id="tspan11"
         x="277.86142"
         y="324.69867"
         style="fill:#f500fe;stroke-width:7.10938" /></text>
  </g>
</svg>
