<?xml version="1.0" encoding="UTF-8"?>
<!-- Created with Inkscape (http://www.inkscape.org/) -->
<svg width="512" height="512" version="1.1" viewBox="0 0 512 512" xmlns="http://www.w3.org/2000/svg" xmlns:xlink="http://www.w3.org/1999/xlink">
 <defs>
  <linearGradient id="linearGradient7">
   <stop stop-color="#d72a08" offset="0"/>
   <stop stop-color="#d72a08" offset=".5"/>
   <stop stop-color="#f52d0c" offset=".5"/>
   <stop stop-color="#f52d0c" offset="1"/>
  </linearGradient>
  <linearGradient id="linearGradient8" x1="68.669" x2="443.33" y1="263.2" y2="263.2" gradientUnits="userSpaceOnUse" xlink:href="#linearGradient7"/>
  <filter id="filter3" x="-.096381" y="-.10756" width="1.1928" height="1.2151" color-interpolation-filters="sRGB">
   <feGaussianBlur stdDeviation="10.965636"/>
  </filter>
  <filter id="filter8" x="-.083413" y="-.078153" width="1.1668" height="1.1563" color-interpolation-filters="sRGB">
   <feGaussianBlur stdDeviation="13.021506"/>
  </filter>
 </defs>
 <path transform="matrix(1.0763 0 0 1.0763 -19.528 -20.102)" d="m247.71 65.398c-9.5044 5.7291-27.523 14.911-55.783 22.927-5.3129 1.5072-13.998 3.7032-19.414 4.7843-36.977 7.3814-76.145 5.005-94.017 3.2696-5.4962-0.53369-9.9273 3.3366-9.8286 8.8585 0.73866 41.333 6.6512 199.68 53.754 263.71 3.2708 4.4468 9.3345 11.056 13.173 15.026 45.022 46.576 91.68 69.41 111.08 77.556 5.0911 2.1377 13.555 2.1377 18.647-9e-5 19.399-8.1456 66.057-30.98 111.08-77.556 3.8382-3.9707 9.9019-10.579 13.173-15.026 47.103-64.038 53.016-222.38 53.754-263.71 0.0987-5.5218-4.3327-9.392-9.8293-8.8583-17.873 1.7354-57.04 4.1117-94.017-3.2698-5.415-1.081-14.1-3.277-19.413-4.7842-28.26-8.0169-46.279-17.198-55.783-22.928-4.7269-2.8493-11.845-2.8493-16.572 9.7e-5z" fill="url(#linearGradient8)" filter="url(#filter8)" style="mix-blend-mode:normal"/>
 <path transform="matrix(1.0763 0 0 1.0763 -19.528 -20.102)" d="m247.71 65.398c-9.5044 5.7291-27.523 14.911-55.783 22.927-5.3129 1.5072-13.998 3.7032-19.414 4.7843-36.977 7.3814-76.145 5.005-94.017 3.2696-5.4962-0.53369-9.9273 3.3366-9.8286 8.8585 0.73866 41.333 6.6512 199.68 53.754 263.71 3.2708 4.4468 9.3345 11.056 13.173 15.026 45.022 46.576 91.68 69.41 111.08 77.556 5.0911 2.1377 13.555 2.1377 18.647-9e-5 19.399-8.1456 66.057-30.98 111.08-77.556 3.8382-3.9707 9.9019-10.579 13.173-15.026 47.103-64.038 53.016-222.38 53.754-263.71 0.0987-5.5218-4.3327-9.392-9.8293-8.8583-17.873 1.7354-57.04 4.1117-94.017-3.2698-5.415-1.081-14.1-3.277-19.413-4.7842-28.26-8.0169-46.279-17.198-55.783-22.928-4.7269-2.8493-11.845-2.8493-16.572 9.7e-5z" fill="url(#linearGradient8)"/>
 <g>
  <path transform="matrix(.90653 0 0 .90653 23.927 24.598)" d="m413.27 302.97q-0.14544 2.4725-0.43633 6.6904-0.14544 0.72722-0.29089 1.4544 0 0.72722-0.14544 1.309-1.309 10.908-6.3995 20.508-3.0543 5.5269-7.5631 9.8902-8.4357 9.4538-20.508 13.09-0.72722 0.29088-1.4544 0.58177t-1.4544 0.58178l-79.994 27.634q-10.617 4.3633-21.962 4.0724-11.345-0.29088-21.671-5.0905-16.726-8.2903-23.562-25.744-0.14544 0-0.29088 0 0 0-0.14545 0h-0.14544q-6.1086 0.72722-12.363 0.72722-16.581-0.72722-28.507-12.508-3.6361-3.4906-6.6904-7.7085-3.3452 2.9089-7.1267 4.9451-12.508 6.6904-26.471 4.7996-11.345-0.29089-21.38-5.8178-9.8902-5.3814-16.29-14.69-11.199-20.944-9.4538-44.651v-70.104q-0.14544-14.981 7.1267-28.216 7.2722-13.235 20.071-21.235h0.14544l0.14545-0.14544q7.5631-3.927 15.708-6.545 12.217-2.7634 21.526-11.199 10.908-11.636 25.744-17.453t30.689-4.6542q17.453 0.87266 32.579-7.9994 14.108-8.1448 30.543-8.5812 19.78 1.0181 37.234 10.763 1.5999 0.72722 2.7634 1.309 1.309 0.58177 2.3271 1.0181 1.1636 0.58178 1.7453 0.72722l0.43633 0.14545h0.14545q10.472 1.4544 20.944 0.29088 2.7634-0.14544 5.6723-0.29088 2.9089-0.14545 5.6723-0.14545 11.054-0.43633 21.089 4.0724 10.036 4.5088 17.162 12.944 13.526 17.308 12.944 39.415l1.8908 123.48v1.1636q0 0.29088 0 0.58177t0 0.58178zm-212.49 27.925q5.8178 5.9632 14.108 6.8359 8.4358 0.14544 16.726-2.0362 0.87267-0.14544 1.4544-0.14544 4.5088-2.1817 7.1268-6.3995 4.6542-6.8359 5.236-15.272 0-0.29089 0-0.58178 0-0.43633 0-0.87266 0-0.58178 0.14544-1.1636v-105.88q0-4.3633 3.0543-7.4176t7.4176-3.0543 7.4176 3.0543 3.0543 7.4176v107.05q0 0.58177-0.14545 1.1636 0 0.43633 0 1.0181-0.43633 4.7996 1.309 9.4538 1.7453 4.5088 5.236 7.854 10.327 6.2541 22.253 5.0905 5.3814 0.29088 10.181-2.0362 4.9451-2.1817 8.1449-6.3995 5.6723-6.9813 6.1086-16.144v-107.05q0-4.3633 3.0543-7.4176t7.4176-3.0543q4.3633 0 7.4176 3.0543t3.0543 7.4176v94.538q0.14545 0.43633 0.14545 0.87266-0.72722 12.072 3.927 23.271 2.0362 4.6542 6.2541 7.4176 6.1086 3.4906 13.09 3.0543 8.4357 0.43633 15.853-3.6361 1.8908-1.1636 3.4906-2.7634 6.8359-8.1448 8.4357-18.617 0.14545-1.5999 0.29089-2.4726 0.14545-2.3271 0.14545-3.927 0.14544-0.72722 0.14544-2.1817l-1.8908-123.48v-0.14544q0.58178-14.544-8.1449-26.18-4.0724-4.7996-9.8902-7.2722-5.8178-2.618-12.217-2.1816-2.1817 0-4.6542 0.14544-2.4726 0-5.3814 0.29089-13.235 1.309-26.325-0.72722-6.545-1.7453-12.508-4.9451-13.09-7.5631-28.071-8.5812-11.49 0.58178-21.235 6.3995-19.926 11.345-42.76 10.181-11.054-0.87266-21.38 2.9089-10.327 3.7815-18.18 11.636-12.944 13.09-30.689 17.599-6.3995 2.0362-12.363 5.0905l-0.29089 0.14545q-7.854 5.236-12.217 13.526-4.3633 8.2903-4.2179 17.599v70.104q-1.4544 17.453 6.1086 33.452 3.927 5.236 9.7447 7.9994 5.8178 2.9089 13.381 3.1998t13.381-2.618q4.6542-2.9089 7.9994-6.9813 0.14545-0.29089 0.43633-0.58178 0.43633-0.43633 0.72722-0.72722v-95.12q0-4.2179 3.0543-7.4176 3.0543-3.0543 7.4176-3.0543 4.3633 0 7.4176 3.0543 3.0543 3.1998 3.0543 7.4176v96.284q0.29088 0.58178 0.58177 1.309 2.0362 6.9813 7.5631 11.636zm87.412 34.034 49.596-17.162q-4.0724-2.9089-7.2722-6.9813-0.14545 0.29088-0.29089 0.43633-0.14544 0.29089-0.29089 0.43633-6.3995 7.9994-15.562 12.217-9.0175 4.3633-19.199 4.0724-19.199 1.309-35.197-9.5993-2.4725-2.0362-4.5088-4.5088-3.3452 4.2179-7.854 7.4176 4.0724 9.163 12.944 13.672 6.545 2.9089 13.672 2.9089t13.672-2.7634z" fill="#faaa9b" filter="url(#filter3)" stroke="#f66a49" stroke-width="8" style="mix-blend-mode:normal" aria-label="👊"/>
  <path d="m398.57 299.25q-0.13185 2.2414-0.39555 6.0651-0.13185 0.65925-0.2637 1.3185 0 0.65925-0.13185 1.1866-1.1866 9.8887-5.8014 18.591-2.7688 5.0103-6.8562 8.9658-7.6473 8.5702-18.591 11.866-0.65925 0.26369-1.3185 0.52739t-1.3185 0.5274l-72.517 25.051q-9.625 3.9555-19.909 3.6918-10.284-0.26369-19.646-4.6147-15.163-7.5154-21.36-23.337-0.13185 0-0.2637 0 0 0-0.13185 0h-0.13185q-5.5377 0.65925-11.207 0.65925-15.031-0.65925-25.843-11.339-3.2962-3.1644-6.0651-6.988-3.0326 2.637-6.4606 4.4829-11.339 6.0651-23.997 4.351-10.284-0.2637-19.382-5.274-8.9658-4.8784-14.767-13.317-10.152-18.986-8.5702-40.478v-63.552q-0.13185-13.581 6.4606-25.579 6.5925-11.998 18.195-19.25h0.13184l0.13186-0.13185q6.8562-3.5599 14.24-5.9332 11.075-2.5052 19.514-10.152 9.8887-10.548 23.337-15.822t27.82-4.2192q15.822 0.7911 29.534-7.2517 12.789-7.3836 27.688-7.7791 17.932 0.92295 33.754 9.7569 1.4504 0.65925 2.5052 1.1866 1.1866 0.52739 2.1096 0.92294 1.0548 0.52741 1.5822 0.65925l0.39554 0.13186h0.13186q9.4932 1.3185 18.986 0.26369 2.5052-0.13185 5.1422-0.26369 2.637-0.13186 5.1421-0.13186 10.021-0.39555 19.118 3.6918t15.558 11.735q12.262 15.69 11.735 35.731l1.714 111.94v1.0548q0 0.26369 0 0.5274 0 0.2637 0 0.5274zm-192.63 25.315q5.274 5.4058 12.789 6.197 7.6473 0.13184 15.163-1.8459 0.79111-0.13184 1.3185-0.13184 4.0874-1.9778 6.4606-5.8014 4.2192-6.1969 4.7466-13.844 0-0.2637 0-0.5274 0-0.39555 0-0.7911 0-0.5274 0.13185-1.0548v-95.987q0-3.9555 2.7688-6.7244 2.7688-2.7688 6.7243-2.7688t6.7244 2.7688q2.7688 2.7688 2.7688 6.7244v97.041q0 0.52739-0.13185 1.0548 0 0.39555 0 0.92294-0.39555 4.351 1.1866 8.5702 1.5822 4.0874 4.7466 7.1199 9.3613 5.6695 20.173 4.6148 4.8784 0.26369 9.2295-1.8459 4.4829-1.9778 7.3836-5.8014 5.1422-6.3288 5.5377-14.635v-97.041q0-3.9555 2.7688-6.7244 2.7688-2.7688 6.7244-2.7688 3.9555 0 6.7243 2.7688 2.7688 2.7688 2.7688 6.7244v85.702q0.13186 0.39555 0.13186 0.7911-0.65925 10.944 3.5599 21.096 1.8459 4.2192 5.6696 6.7244 5.5377 3.1644 11.866 2.7688 7.6473 0.39555 14.372-3.2962 1.714-1.0548 3.1644-2.5051 6.1969-7.3836 7.6473-16.877 0.13185-1.4504 0.2637-2.2414 0.13185-2.1096 0.13185-3.5599 0.13185-0.65925 0.13185-1.9778l-1.714-111.94v-0.13184q0.52741-13.185-7.3836-23.733-3.6918-4.351-8.9658-6.5925-5.274-2.3733-11.075-1.9777-1.9778 0-4.2192 0.13184-2.2414 0-4.8784 0.2637-11.998 1.1866-23.865-0.65925-5.9332-1.5822-11.339-4.4829-11.866-6.8562-25.447-7.7791-10.416 0.5274-19.25 5.8014-18.063 10.284-38.764 9.2295-10.021-0.7911-19.382 2.637t-16.481 10.548q-11.735 11.866-27.82 15.954-5.8014 1.8459-11.207 4.6147l-0.2637 0.13185q-7.1199 4.7466-11.075 12.262-3.9555 7.5154-3.8236 15.954v63.552q-1.3185 15.822 5.5377 30.325 3.5599 4.7466 8.8339 7.2518 5.274 2.637 12.13 2.9007 6.8562 0.2637 12.13-2.3733 4.2192-2.637 7.2517-6.3288 0.13185-0.2637 0.39555-0.5274 0.39554-0.39555 0.65925-0.65925v-86.23q0-3.8236 2.7688-6.7244 2.7688-2.7688 6.7244-2.7688 3.9555 0 6.7243 2.7688 2.7688 2.9007 2.7688 6.7244v87.285q0.26369 0.5274 0.5274 1.1866 1.8459 6.3288 6.8562 10.548zm79.242 30.853 44.961-15.558q-3.6918-2.637-6.5925-6.3288-0.13186 0.26369-0.2637 0.39555-0.13185 0.2637-0.26371 0.39555-5.8014 7.2517-14.108 11.075-8.1747 3.9555-17.404 3.6918-17.404 1.1866-31.908-8.7021-2.2414-1.8459-4.0873-4.0873-3.0325 3.8236-7.1199 6.7243 3.6918 8.3065 11.735 12.394 5.9332 2.637 12.394 2.637 6.4606 0 12.394-2.5052z" fill="#faaa9b" stroke="#f66a49" stroke-width="7.2523" aria-label="👊"/>
  <text x="275.63828" y="317.71255" fill="#fb00fe" font-size="204.36px" letter-spacing="-12.773px" stroke-width="6.3864" xml:space="preserve"><tspan x="275.63828" y="317.71255" fill="#f500fe" stroke-width="6.3864"/></text>
 </g>
</svg>
