<?xml version="1.0" encoding="UTF-8" standalone="no"?>
<!-- Created with Inkscape (http://www.inkscape.org/) -->

<svg
   width="1000"
   height="300"
   viewBox="0 0 1000 300"
   version="1.1"
   id="svg1"
   xml:space="preserve"
   inkscape:version="1.3.2 (091e20e, 2023-11-25, custom)"
   sodipodi:docname="knuckles-banner.svg"
   xmlns:inkscape="http://www.inkscape.org/namespaces/inkscape"
   xmlns:sodipodi="http://sodipodi.sourceforge.net/DTD/sodipodi-0.dtd"
   xmlns:xlink="http://www.w3.org/1999/xlink"
   xmlns="http://www.w3.org/2000/svg"
   xmlns:svg="http://www.w3.org/2000/svg"><sodipodi:namedview
     id="namedview1"
     pagecolor="#ffffff"
     bordercolor="#000000"
     borderopacity="0.25"
     inkscape:showpageshadow="2"
     inkscape:pageopacity="0.0"
     inkscape:pagecheckerboard="0"
     inkscape:deskcolor="#d1d1d1"
     inkscape:document-units="px"
     inkscape:zoom="1.0449705"
     inkscape:cx="466.52035"
     inkscape:cy="121.05605"
     inkscape:window-width="2560"
     inkscape:window-height="1369"
     inkscape:window-x="-8"
     inkscape:window-y="-8"
     inkscape:window-maximized="1"
     inkscape:current-layer="layer1" /><defs
     id="defs1"><linearGradient
       id="linearGradient15"
       inkscape:collect="always"><stop
         style="stop-color:#ffffff;stop-opacity:1;"
         offset="0"
         id="stop16" /><stop
         style="stop-color:#f2caa9;stop-opacity:1;"
         offset="1"
         id="stop17" /></linearGradient><linearGradient
       id="linearGradient2"
       inkscape:collect="always"><stop
         style="stop-color:#ee2d08;stop-opacity:1;"
         offset="0"
         id="stop2" /><stop
         style="stop-color:#f27c46;stop-opacity:0.80000001;"
         offset="0.5"
         id="stop15" /><stop
         style="stop-color:#ec2e08;stop-opacity:0.80000001;"
         offset="1"
         id="stop14" /></linearGradient><inkscape:path-effect
       effect="fillet_chamfer"
       id="path-effect8"
       is_visible="true"
       lpeversion="1"
       nodesatellites_param="F,0,0,1,0,10,0,1 @ F,0,0,1,0,10,0,1 @ F,0,0,1,0,10,0,1 @ F,0,0,1,0,10,0,1 @ F,0,0,1,0,10,0,1 @ F,0,0,1,0,10,0,1 @ F,0,0,1,0,10,0,1 @ F,0,0,1,0,10,0,1"
       radius="10"
       unit="px"
       method="auto"
       mode="F"
       chamfer_steps="1"
       flexible="false"
       use_knot_distance="true"
       apply_no_radius="true"
       apply_with_radius="true"
       only_selected="false"
       hide_knots="false" /><linearGradient
       id="linearGradient7"
       inkscape:collect="always"><stop
         style="stop-color:#d72a08;stop-opacity:1"
         offset="0"
         id="stop7" /><stop
         style="stop-color:#d72a08;stop-opacity:1"
         offset="0.5"
         id="stop9" /><stop
         style="stop-color:#f52d0c;stop-opacity:1"
         offset="0.5"
         id="stop10" /><stop
         style="stop-color:#f52d0c;stop-opacity:1"
         offset="1"
         id="stop8" /></linearGradient><inkscape:path-effect
       effect="fillet_chamfer"
       id="path-effect6"
       is_visible="true"
       lpeversion="1"
       nodesatellites_param="F,0,0,1,0,10,0,1 @ F,0,0,1,0,10,0,1 @ F,0,0,1,0,10,0,1 @ F,0,0,1,0,10,0,1 @ F,0,0,1,0,10,0,1 @ F,0,0,1,0,10,0,1 @ F,0,0,1,0,10,0,1 @ F,0,0,1,0,10,0,1"
       radius="10"
       unit="px"
       method="auto"
       mode="F"
       chamfer_steps="1"
       flexible="false"
       use_knot_distance="true"
       apply_no_radius="true"
       apply_with_radius="true"
       only_selected="false"
       hide_knots="false" /><inkscape:path-effect
       effect="fillet_chamfer"
       id="path-effect5"
       is_visible="true"
       lpeversion="1"
       nodesatellites_param="F,0,0,1,0,0,0,1 @ F,0,0,1,0,0,0,1 @ F,0,0,1,0,0,0,1 @ F,0,0,1,0,0,0,1 @ F,0,0,1,0,0,0,1 | F,0,0,1,0,0,0,1 @ F,0,0,1,0,0,0,1 @ F,0,0,1,0,0,0,1 @ F,0,0,1,0,0,0,1 @ F,0,0,1,0,0,0,1"
       radius="0"
       unit="px"
       method="auto"
       mode="F"
       chamfer_steps="1"
       flexible="false"
       use_knot_distance="true"
       apply_no_radius="true"
       apply_with_radius="true"
       only_selected="false"
       hide_knots="false" /><inkscape:path-effect
       effect="fillet_chamfer"
       id="path-effect4"
       is_visible="true"
       lpeversion="1"
       nodesatellites_param="F,0,0,1,0,0,0,1 @ F,0,0,1,0,0,0,1 @ F,0,0,1,0,0,0,1 @ F,0,0,1,0,0,0,1 @ F,0,0,1,0,0,0,1 | F,0,0,1,0,0,0,1 @ F,0,0,1,0,0,0,1 @ F,0,0,1,0,0,0,1 @ F,0,0,1,0,0,0,1 @ F,0,0,1,0,0,0,1"
       radius="0"
       unit="px"
       method="auto"
       mode="F"
       chamfer_steps="1"
       flexible="false"
       use_knot_distance="true"
       apply_no_radius="true"
       apply_with_radius="true"
       only_selected="false"
       hide_knots="false" /><inkscape:path-effect
       effect="mirror_symmetry"
       start_point="256,59.810299"
       end_point="256,465.14464"
       center_point="256,262.47747"
       id="path-effect3"
       is_visible="true"
       lpeversion="1.2"
       lpesatellites=""
       mode="free"
       discard_orig_path="false"
       fuse_paths="false"
       oposite_fuse="false"
       split_items="false"
       split_open="false"
       link_styles="false" /><inkscape:path-effect
       effect="mirror_symmetry"
       start_point="256,59.810293"
       end_point="256,430.63415"
       center_point="256,245.22222"
       id="path-effect2"
       is_visible="true"
       lpeversion="1.2"
       lpesatellites=""
       mode="free"
       discard_orig_path="false"
       fuse_paths="false"
       oposite_fuse="false"
       split_items="false"
       split_open="false"
       link_styles="false" /><linearGradient
       inkscape:collect="always"
       xlink:href="#linearGradient7"
       id="linearGradient8"
       x1="68.669478"
       y1="263.19888"
       x2="443.33052"
       y2="263.19888"
       gradientUnits="userSpaceOnUse" /><filter
       inkscape:collect="always"
       style="color-interpolation-filters:sRGB"
       id="filter3"
       x="-0.096380746"
       y="-0.10756124"
       width="1.1927678"
       height="1.2151123"><feGaussianBlur
         inkscape:collect="always"
         stdDeviation="10.965636"
         id="feGaussianBlur3" /></filter><filter
       inkscape:collect="always"
       style="color-interpolation-filters:sRGB"
       id="filter8"
       x="-0.083413037"
       y="-0.078153209"
       width="1.1668261"
       height="1.1563064"><feGaussianBlur
         inkscape:collect="always"
         stdDeviation="13.021506"
         id="feGaussianBlur8" /></filter><linearGradient
       inkscape:collect="always"
       xlink:href="#linearGradient7"
       id="linearGradient1"
       gradientUnits="userSpaceOnUse"
       x1="68.669478"
       y1="263.19888"
       x2="443.33052"
       y2="263.19888" /><linearGradient
       inkscape:collect="always"
       xlink:href="#linearGradient2"
       id="linearGradient3"
       x1="65.71387"
       y1="112.2526"
       x2="453.58386"
       y2="112.2526"
       gradientUnits="userSpaceOnUse"
       gradientTransform="translate(-17.713877,-28.456083)" /><linearGradient
       inkscape:collect="always"
       xlink:href="#linearGradient15"
       id="linearGradient17"
       x1="-0.95696479"
       y1="300.24347"
       x2="1000"
       y2="2.6274242"
       gradientUnits="userSpaceOnUse" /><inkscape:path-effect
       effect="fillet_chamfer"
       id="path-effect8-3"
       is_visible="true"
       lpeversion="1"
       nodesatellites_param="F,0,0,1,0,10,0,1 @ F,0,0,1,0,10,0,1 @ F,0,0,1,0,10,0,1 @ F,0,0,1,0,10,0,1 @ F,0,0,1,0,10,0,1 @ F,0,0,1,0,10,0,1 @ F,0,0,1,0,10,0,1 @ F,0,0,1,0,10,0,1"
       radius="10"
       unit="px"
       method="auto"
       mode="F"
       chamfer_steps="1"
       flexible="false"
       use_knot_distance="true"
       apply_no_radius="true"
       apply_with_radius="true"
       only_selected="false"
       hide_knots="false" /><linearGradient
       inkscape:collect="always"
       xlink:href="#linearGradient7"
       id="linearGradient8-4-1"
       x1="68.669479"
       y1="263.19888"
       x2="443.33051"
       y2="263.19888"
       gradientUnits="userSpaceOnUse" /><filter
       inkscape:collect="always"
       style="color-interpolation-filters:sRGB"
       id="filter8-4-6"
       x="-0.083413037"
       y="-0.078153209"
       width="1.1668261"
       height="1.1563064"><feGaussianBlur
         inkscape:collect="always"
         stdDeviation="13.021506"
         id="feGaussianBlur8-5-8" /></filter><inkscape:path-effect
       effect="fillet_chamfer"
       id="path-effect8-3-7"
       is_visible="true"
       lpeversion="1"
       nodesatellites_param="F,0,0,1,0,10,0,1 @ F,0,0,1,0,10,0,1 @ F,0,0,1,0,10,0,1 @ F,0,0,1,0,10,0,1 @ F,0,0,1,0,10,0,1 @ F,0,0,1,0,10,0,1 @ F,0,0,1,0,10,0,1 @ F,0,0,1,0,10,0,1"
       radius="10"
       unit="px"
       method="auto"
       mode="F"
       chamfer_steps="1"
       flexible="false"
       use_knot_distance="true"
       apply_no_radius="true"
       apply_with_radius="true"
       only_selected="false"
       hide_knots="false" /><filter
       inkscape:collect="always"
       style="color-interpolation-filters:sRGB"
       id="filter17"
       x="-0.57960676"
       y="-0.57960676"
       width="2.1592135"
       height="2.1592135"><feGaussianBlur
         inkscape:collect="always"
         stdDeviation="52.4619"
         id="feGaussianBlur17" /></filter></defs><g
     inkscape:label="Lager 1"
     inkscape:groupmode="layer"
     id="layer1"><rect
       style="fill:url(#linearGradient17);fill-opacity:1;stroke:none;stroke-width:2.1131;stroke-dasharray:none"
       id="rect15"
       width="1000"
       height="300"
       x="0"
       y="0" /><circle
       style="opacity:0.63649;fill:#ff5222;fill-opacity:1;stroke:none;stroke-width:3.03118;stroke-dasharray:none;filter:url(#filter17)"
       id="path17"
       cx="794.48718"
       cy="134.43364"
       r="108.6155"
       transform="matrix(1.2784331,0,0,1.2784331,-222.90322,-26.942293)" /><g
       inkscape:label="Lager 1"
       id="layer1-5"
       transform="matrix(0.5667464,0,0,0.5667464,696.69248,4.5465263)"><path
         id="path4-7-4"
         style="mix-blend-mode:normal;fill:url(#linearGradient8-4-1);filter:url(#filter8-4-6)"
         d="m 247.71402,65.397809 c -9.50437,5.729122 -27.52328,14.910625 -55.78348,22.927474 -5.3129,1.507166 -13.99813,3.70324 -19.41356,4.784258 -36.97747,7.381389 -76.144943,5.004989 -94.017291,3.269563 -5.496213,-0.533689 -9.927276,3.336608 -9.828594,8.858506 0.738659,41.33281 6.651224,199.67594 53.754265,263.71417 3.27082,4.44679 9.33448,11.05555 13.1728,15.02633 45.02214,46.57588 91.67972,69.41013 111.07866,77.55564 5.09113,2.13773 13.55533,2.1377 18.64656,-9e-5 19.39909,-8.14559 66.05659,-30.97989 111.07861,-77.55571 3.83823,-3.9707 9.90188,-10.57943 13.17275,-15.02631 47.10302,-64.0384 53.01552,-222.38168 53.75416,-263.7142 0.0987,-5.521804 -4.33271,-9.39198 -9.82933,-8.858264 -17.87281,1.735431 -57.0401,4.111684 -94.01728,-3.26978 -5.41502,-1.080957 -14.10001,-3.276967 -19.41301,-4.784164 -28.26025,-8.016882 -46.27915,-17.198417 -55.78346,-22.92752 -4.72693,-2.849342 -11.84478,-2.849291 -16.5718,9.7e-5 z"
         transform="matrix(1.0762823,0,0,1.0762823,-62.260323,-31.257801)"
         inkscape:original-d="m 256,59.810547 c 0,0 -21.73113,17.974397 -73.72852,31.101562 -52.42569,13.235301 -113.705074,4.326172 -113.705074,4.326172 0,0 -0.583594,214.944129 60.183594,281.453129 60.7672,66.50898 127.25,88.45312 127.25,88.45312 0,0 66.4828,-21.94414 127.25,-88.45312 60.76719,-66.509 60.18359,-281.453129 60.18359,-281.453129 0,0 -61.27938,8.909129 -113.70507,-4.326172 C 277.73113,77.784944 256,59.810547 256,59.810547 Z"
         inkscape:path-effect="#path-effect8-3-7" /><path
         id="path2"
         style="fill:url(#linearGradient1)"
         d="m 247.71402,65.397809 c -9.50437,5.729122 -27.52328,14.910625 -55.78348,22.927474 -5.3129,1.507166 -13.99813,3.70324 -19.41356,4.784258 -36.97747,7.381389 -76.144943,5.004989 -94.017291,3.269563 -5.496213,-0.533689 -9.927276,3.336608 -9.828594,8.858506 0.738659,41.33281 6.651224,199.67594 53.754265,263.71417 3.27082,4.44679 9.33448,11.05555 13.1728,15.02633 45.02214,46.57588 91.67972,69.41013 111.07866,77.55564 5.09113,2.13773 13.55533,2.1377 18.64656,-9e-5 19.39909,-8.14559 66.05659,-30.97989 111.07861,-77.55571 3.83823,-3.9707 9.90188,-10.57943 13.17275,-15.02631 47.10302,-64.0384 53.01552,-222.38168 53.75416,-263.7142 0.0987,-5.521804 -4.33271,-9.39198 -9.82933,-8.858264 -17.87281,1.735431 -57.0401,4.111684 -94.01728,-3.26978 -5.41502,-1.080957 -14.10001,-3.276967 -19.41301,-4.784164 -28.26025,-8.016882 -46.27915,-17.198417 -55.78346,-22.92752 -4.72693,-2.849342 -11.84478,-2.849291 -16.5718,9.7e-5 z"
         inkscape:original-d="m 256,59.810547 c 0,0 -21.73113,17.974397 -73.72852,31.101562 -52.42569,13.235301 -113.705074,4.326172 -113.705074,4.326172 0,0 -0.583594,214.944129 60.183594,281.453129 60.7672,66.50898 127.25,88.45312 127.25,88.45312 0,0 66.4828,-21.94414 127.25,-88.45312 60.76719,-66.509 60.18359,-281.453129 60.18359,-281.453129 0,0 -61.27938,8.909129 -113.70507,-4.326172 C 277.73113,77.784944 256,59.810547 256,59.810547 Z"
         inkscape:path-effect="#path-effect6"
         transform="matrix(1.0762823,0,0,1.0762823,-64.899,-24.888364)" /><path
         id="path4"
         style="mix-blend-mode:normal;fill:url(#linearGradient8);filter:url(#filter8)"
         d="m 247.71402,65.397809 c -9.50437,5.729122 -27.52328,14.910625 -55.78348,22.927474 -5.3129,1.507166 -13.99813,3.70324 -19.41356,4.784258 -36.97747,7.381389 -76.144943,5.004989 -94.017291,3.269563 -5.496213,-0.533689 -9.927276,3.336608 -9.828594,8.858506 0.738659,41.33281 6.651224,199.67594 53.754265,263.71417 3.27082,4.44679 9.33448,11.05555 13.1728,15.02633 45.02214,46.57588 91.67972,69.41013 111.07866,77.55564 5.09113,2.13773 13.55533,2.1377 18.64656,-9e-5 19.39909,-8.14559 66.05659,-30.97989 111.07861,-77.55571 3.83823,-3.9707 9.90188,-10.57943 13.17275,-15.02631 47.10302,-64.0384 53.01552,-222.38168 53.75416,-263.7142 0.0987,-5.521804 -4.33271,-9.39198 -9.82933,-8.858264 -17.87281,1.735431 -57.0401,4.111684 -94.01728,-3.26978 -5.41502,-1.080957 -14.10001,-3.276967 -19.41301,-4.784164 -28.26025,-8.016882 -46.27915,-17.198417 -55.78346,-22.92752 -4.72693,-2.849342 -11.84478,-2.849291 -16.5718,9.7e-5 z"
         transform="matrix(1.0762823,0,0,1.0762823,-64.899012,-24.888357)"
         inkscape:original-d="m 256,59.810547 c 0,0 -21.73113,17.974397 -73.72852,31.101562 -52.42569,13.235301 -113.705074,4.326172 -113.705074,4.326172 0,0 -0.583594,214.944129 60.183594,281.453129 60.7672,66.50898 127.25,88.45312 127.25,88.45312 0,0 66.4828,-21.94414 127.25,-88.45312 60.76719,-66.509 60.18359,-281.453129 60.18359,-281.453129 0,0 -61.27938,8.909129 -113.70507,-4.326172 C 277.73113,77.784944 256,59.810547 256,59.810547 Z"
         inkscape:path-effect="#path-effect8" /><path
         style="font-size:297.869px;font-family:'Segoe UI';-inkscape-font-specification:'Segoe UI';letter-spacing:-18.6168px;mix-blend-mode:normal;fill:#faaa9b;fill-opacity:1;stroke:#f66a49;stroke-width:8;stroke-dasharray:none;stroke-opacity:1;filter:url(#filter3)"
         d="m 413.26973,302.97019 q -0.14544,2.47254 -0.43633,6.69041 -0.14544,0.72722 -0.29089,1.45444 0,0.72722 -0.14544,1.309 -1.30899,10.90828 -6.39953,20.50758 -3.05432,5.52686 -7.56308,9.89018 -8.43574,9.45385 -20.50758,13.08995 -0.72722,0.29088 -1.45444,0.58177 -0.72722,0.29089 -1.45444,0.58178 l -79.99411,27.63433 q -10.6174,4.36331 -21.96202,4.07242 -11.34462,-0.29088 -21.67113,-5.09053 -16.72604,-8.2903 -23.56191,-25.74356 -0.14544,0 -0.29088,0 0,0 -0.14545,0 h -0.14544 q -6.10864,0.72722 -12.36273,0.72722 -16.58059,-0.72722 -28.50699,-12.50817 -3.6361,-3.49065 -6.69042,-7.70853 -3.34521,2.90888 -7.12674,4.94509 -12.50818,6.69042 -26.47078,4.79965 -11.34462,-0.29089 -21.38025,-5.81775 -9.89018,-5.38142 -16.28971,-14.68983 -11.199175,-20.94391 -9.453849,-44.65126 v -70.10393 q -0.145444,-14.98072 7.126749,-28.21611 7.27219,-13.23539 20.07125,-21.2348 h 0.14544 l 0.14545,-0.14544 q 7.56308,-3.92698 15.70793,-6.54497 12.21728,-2.76344 21.52569,-11.19918 10.90829,-11.63551 25.74356,-17.45326 14.83527,-5.81775 30.68865,-4.6542 17.45326,0.87266 32.57942,-7.99942 14.10805,-8.14485 30.54321,-8.58118 19.78036,1.01811 37.23362,10.76284 1.59988,0.72722 2.76344,1.309 1.30899,0.58177 2.3271,1.0181 1.16355,0.58178 1.74532,0.72722 l 0.43633,0.14545 h 0.14545 q 10.47195,1.45444 20.94391,0.29088 2.76343,-0.14544 5.67231,-0.29088 2.90888,-0.14545 5.67231,-0.14545 11.05373,-0.43633 21.08936,4.07243 10.03562,4.50876 17.16237,12.9445 13.52628,17.30782 12.9445,39.41528 l 1.89077,123.48183 v 1.16355 q 0,0.29088 0,0.58177 0,0.29089 0,0.58178 z M 200.77628,330.8954 q 5.81775,5.9632 14.10805,6.83587 8.43575,0.14544 16.72604,-2.03622 0.87267,-0.14544 1.45444,-0.14544 4.50876,-2.18166 7.12675,-6.39953 4.6542,-6.83586 5.23598,-15.2716 0,-0.29089 0,-0.58178 0,-0.43633 0,-0.87266 0,-0.58178 0.14544,-1.16355 V 205.37737 q 0,-4.36332 3.05432,-7.41764 3.05432,-3.05432 7.41764,-3.05432 4.36332,0 7.41764,3.05432 3.05432,3.05432 3.05432,7.41764 v 107.04667 q 0,0.58177 -0.14545,1.16355 0,0.43633 0,1.0181 -0.43633,4.79965 1.309,9.45385 1.74532,4.50876 5.23598,7.85397 10.32651,6.25409 22.2529,5.09054 5.38143,0.29088 10.18107,-2.03622 4.94509,-2.18166 8.14486,-6.39953 5.67231,-6.9813 6.10864,-16.14426 V 205.37737 q 0,-4.36332 3.05432,-7.41764 3.05432,-3.05432 7.41764,-3.05432 4.36331,0 7.41763,3.05432 3.05432,3.05432 3.05432,7.41764 v 94.5385 q 0.14545,0.43633 0.14545,0.87266 -0.72722,12.07184 3.92698,23.27101 2.03621,4.65421 6.25409,7.41764 6.10864,3.49065 13.08994,3.05432 8.43574,0.43633 15.85338,-3.6361 1.89077,-1.16355 3.49065,-2.76343 6.83586,-8.14485 8.43574,-18.61681 0.14545,-1.59988 0.29089,-2.47255 0.14545,-2.3271 0.14545,-3.92698 0.14544,-0.72722 0.14544,-2.18166 l -1.89077,-123.48182 v -0.14544 q 0.58178,-14.54439 -8.14486,-26.17989 -4.07242,-4.79965 -9.89018,-7.2722 -5.81775,-2.61799 -12.21728,-2.18165 -2.18166,0 -4.6542,0.14544 -2.47255,0 -5.38142,0.29089 -13.23539,1.30899 -26.32534,-0.72722 -6.54497,-1.74533 -12.50817,-4.94509 -13.08995,-7.56308 -28.07066,-8.58119 -11.49006,0.58178 -21.2348,6.39953 -19.92581,11.34462 -42.76049,10.18107 -11.05373,-0.87266 -21.38025,2.90888 -10.32651,3.78154 -18.18048,11.6355 -12.9445,13.08995 -30.68865,17.59871 -6.39953,2.03621 -12.36272,5.09053 l -0.29089,0.14545 q -7.85397,5.23598 -12.21728,13.52627 -4.36332,8.2903 -4.21788,17.59871 v 70.10393 q -1.45443,17.45326 6.10865,33.45208 3.92698,5.23598 9.74473,7.99942 5.81776,2.90887 13.38084,3.19976 7.56308,0.29089 13.38083,-2.61799 4.6542,-2.90888 7.99941,-6.9813 0.14545,-0.29089 0.43633,-0.58178 0.43633,-0.43633 0.72722,-0.72722 v -95.12027 q 0,-4.21787 3.05432,-7.41764 3.05432,-3.05432 7.41764,-3.05432 4.36331,0 7.41763,3.05432 3.05433,3.19977 3.05433,7.41764 v 96.28382 q 0.29088,0.58178 0.58177,1.309 2.03621,6.9813 7.56308,11.6355 z m 87.41175,34.03386 v 0 l 49.59635,-17.16237 q -4.07243,-2.90888 -7.27219,-6.9813 -0.14545,0.29088 -0.29089,0.43633 -0.14544,0.29089 -0.29089,0.43633 -6.39953,7.99941 -15.56249,12.21728 -9.01752,4.36332 -19.19859,4.07243 -19.19858,1.30899 -35.19741,-9.59929 -2.47254,-2.03622 -4.50876,-4.50876 -3.3452,4.21787 -7.85396,7.41763 4.07242,9.16296 12.9445,13.67172 6.54497,2.90888 13.67172,2.90888 7.12675,0 13.67172,-2.76343 z"
         id="path3"
         aria-label="👊"
         transform="matrix(0.90653443,0,0,0.90653443,-21.444451,33.699177)" /><path
         style="font-size:297.869px;font-family:'Segoe UI';-inkscape-font-specification:'Segoe UI';letter-spacing:-18.6168px;fill:#faaa9b;fill-opacity:1;stroke:#f66a49;stroke-width:7.25228;stroke-dasharray:none;stroke-opacity:1"
         d="m 353.1988,308.35209 q -0.13185,2.24144 -0.39555,6.06509 -0.13185,0.65925 -0.2637,1.3185 0,0.65925 -0.13185,1.18665 -1.18664,9.88873 -5.80139,18.59083 -2.76885,5.01029 -6.8562,8.96579 -7.64729,8.57024 -18.59082,11.86649 -0.65925,0.26369 -1.3185,0.52739 -0.65925,0.2637 -1.3185,0.5274 l -72.51742,25.05148 q -9.62504,3.95549 -19.90933,3.69178 -10.28428,-0.26369 -19.64562,-4.61474 -15.16273,-7.51544 -21.35968,-23.33742 -0.13185,0 -0.2637,0 0,0 -0.13185,0 h -0.13185 q -5.53769,0.65925 -11.20724,0.65925 -15.03087,-0.65925 -25.84257,-11.33909 -3.29625,-3.16439 -6.06509,-6.98804 -3.03255,2.637 -6.46064,4.48289 -11.33909,6.0651 -23.99667,4.35105 -10.28429,-0.2637 -19.381932,-5.27399 -8.96579,-4.87844 -14.76719,-13.31684 -10.15243,-18.98637 -8.57024,-40.4779 v -63.55163 q -0.13185,-13.58054 6.46065,-25.57887 6.59249,-11.99834 18.19528,-19.25008 h 0.13184 l 0.13186,-0.13185 q 6.856192,-3.55994 14.239782,-5.93324 11.07538,-2.50515 19.51378,-10.15244 9.88874,-10.54799 23.33742,-15.82198 13.44868,-5.27399 27.82032,-4.2192 15.82198,0.7911 29.53436,-7.25174 12.78944,-7.38359 27.68847,-7.77914 17.93158,0.92295 33.75356,9.75689 1.45035,0.65925 2.50516,1.18665 1.18664,0.52739 2.10959,0.92294 1.0548,0.52741 1.5822,0.65925 l 0.39554,0.13186 h 0.13186 q 9.49318,1.3185 18.98637,0.26369 2.50515,-0.13185 5.14215,-0.26369 2.637,-0.13186 5.14214,-0.13186 10.02059,-0.39555 19.11823,3.6918 9.09764,4.08735 15.55828,11.73463 12.26204,15.69014 11.73464,35.73131 l 1.71405,111.94053 v 1.0548 q 0,0.26369 0,0.5274 0,0.2637 0,0.5274 z m -192.63263,25.31516 q 5.27399,5.40585 12.78943,6.19696 7.6473,0.13184 15.16273,-1.84591 0.79111,-0.13184 1.3185,-0.13184 4.08735,-1.97775 6.46065,-5.8014 4.21919,-6.19694 4.74659,-13.84423 0,-0.2637 0,-0.5274 0,-0.39555 0,-0.7911 0,-0.5274 0.13185,-1.0548 v -95.98669 q 0,-3.9555 2.76885,-6.72435 2.76884,-2.76884 6.72434,-2.76884 3.9555,0 6.72435,2.76884 2.76884,2.76885 2.76884,6.72435 v 97.04149 q 0,0.52739 -0.13185,1.0548 0,0.39555 0,0.92294 -0.39555,4.35105 1.18665,8.57024 1.58219,4.08735 4.7466,7.1199 9.36133,5.66954 20.17302,4.61475 4.87845,0.26369 9.22949,-1.84591 4.48289,-1.97775 7.38359,-5.80139 5.14215,-6.32879 5.5377,-14.63533 v -97.04149 q 0,-3.9555 2.76884,-6.72435 2.76885,-2.76884 6.72435,-2.76884 3.95549,0 6.72434,2.76884 2.76884,2.76885 2.76884,6.72435 v 85.7024 q 0.13186,0.39555 0.13186,0.7911 -0.65925,10.94354 3.55994,21.09597 1.84589,4.2192 5.66955,6.72435 5.53769,3.16439 11.86648,2.76884 7.64729,0.39555 14.37163,-3.29625 1.71405,-1.05479 3.1644,-2.50514 6.19694,-7.38359 7.64729,-16.87678 0.13185,-1.45035 0.2637,-2.24145 0.13185,-2.1096 0.13185,-3.55994 0.13185,-0.65925 0.13185,-1.97775 l -1.71405,-111.94053 v -0.13184 q 0.52741,-13.18499 -7.38359,-23.73297 -3.69179,-4.35105 -8.96579,-6.5925 -5.27399,-2.3733 -11.07539,-1.97774 -1.97775,0 -4.21919,0.13184 -2.24145,0 -4.87844,0.2637 -11.99834,1.18665 -23.86483,-0.65925 -5.93324,-1.5822 -11.33909,-4.48289 -11.86649,-6.85619 -25.44702,-7.77914 -10.41613,0.5274 -19.25007,5.80139 -18.06344,10.28429 -38.76386,9.22949 -10.02059,-0.7911 -19.38193,2.637 -9.36134,3.4281 -16.48123,10.54798 -11.73464,11.86649 -27.82032,15.95384 -5.80139,1.84589 -11.20723,4.61474 l -0.2637,0.13185 q -7.119902,4.7466 -11.075392,12.26203 -3.9555,7.51545 -3.82365,15.95384 v 63.55163 q -1.31849,15.82198 5.5377,30.32546 3.55994,4.74659 8.833932,7.25175 5.274,2.63699 12.13019,2.90069 6.8562,0.2637 12.13019,-2.3733 4.21919,-2.637 7.25174,-6.32879 0.13185,-0.2637 0.39555,-0.5274 0.39554,-0.39555 0.65925,-0.65925 v -86.2298 q 0,-3.82364 2.76884,-6.72435 2.76885,-2.76884 6.72435,-2.76884 3.95549,0 6.72434,2.76884 2.76885,2.90071 2.76885,6.72435 v 87.2846 q 0.26369,0.5274 0.5274,1.18665 1.84589,6.32879 6.85619,10.54798 z m 79.24176,30.85287 v 0 l 44.9608,-15.55828 q -3.6918,-2.637 -6.59249,-6.32879 -0.13186,0.26369 -0.2637,0.39555 -0.13185,0.2637 -0.26371,0.39555 -5.80139,7.25174 -14.10793,11.07538 -8.17469,3.9555 -17.40418,3.6918 -17.40418,1.18665 -31.90767,-8.70209 -2.24144,-1.8459 -4.08734,-4.08734 -3.03254,3.82364 -7.11989,6.72433 3.69179,8.30654 11.73464,12.39389 5.93324,2.637 12.39388,2.637 6.46065,0 12.39389,-2.50515 z"
         id="text10"
         aria-label="👊" /><text
         xml:space="preserve"
         style="font-size:204.365px;letter-spacing:-12.7728px;fill:#fb00fe;fill-opacity:1;fill-rule:nonzero;stroke-width:6.38641"
         x="275.63828"
         y="317.71255"
         id="text11"><tspan
           sodipodi:role="line"
           id="tspan11"
           x="275.63828"
           y="317.71255"
           style="fill:#f500fe;stroke-width:6.38641" /></text></g><path
       style="font-weight:bold;font-size:97.0192px;font-family:Inter;-inkscape-font-specification:'Inter Bold';letter-spacing:-6.0637px;fill:url(#linearGradient3);stroke-width:3.03118"
       d="M 47.999999,118.55942 V 47.999997 H 62.91808 v 31.110917 h 0.930227 L 89.240051,47.999997 H 107.12108 L 80.936916,79.593253 107.43115,118.55942 H 89.58458 L 70.256535,89.550125 62.91808,98.507864 V 118.55942 Z M 123.24499,87.965294 V 118.55942 H 108.56808 V 65.639852 h 13.98785 v 9.336721 h 0.62015 q 1.7571,-4.616681 5.89144,-7.304003 4.13434,-2.721774 10.02578,-2.721774 5.51245,0 9.61234,2.411698 4.09989,2.411699 6.37377,6.890569 2.27389,4.444416 2.27389,10.611475 V 118.55942 H 142.67639 V 87.482954 q 0.0344,-4.857851 -2.4806,-7.579625 -2.51506,-2.756227 -6.92503,-2.756227 -2.96294,0 -5.23683,1.274755 -2.23943,1.274755 -3.51419,3.720907 -1.2403,2.411699 -1.27475,5.82253 z m 73.52229,8.061965 V 65.639852 h 14.67691 v 52.919568 h -14.09121 v -9.61235 h -0.55124 q -1.79155,4.65114 -5.96035,7.47627 -4.13434,2.82513 -10.09468,2.82513 -5.30574,0 -9.33672,-2.41169 -4.03098,-2.4117 -6.30487,-6.85612 -2.23943,-4.44442 -2.27389,-10.645928 v -33.69488 h 14.67691 v 31.076464 q 0.0345,4.685584 2.51506,7.407364 2.48061,2.72177 6.6494,2.72177 2.65287,0 4.96121,-1.20585 2.30834,-1.2403 3.72091,-3.652 1.44702,-2.411698 1.41256,-5.960341 z M 241.00467,119.593 q -8.13087,0 -13.98785,-3.44528 -5.82253,-3.47974 -8.95774,-9.6468 -3.10075,-6.16706 -3.10075,-14.194568 0,-8.130871 3.1352,-14.263477 3.16967,-6.167058 8.9922,-9.612342 5.82253,-3.479737 13.85004,-3.479737 6.92502,0 12.1274,2.515057 5.20238,2.515057 8.23423,7.062833 3.03185,4.547775 3.34192,10.680381 h -13.85004 q -0.5857,-3.962077 -3.10075,-6.373776 -2.48061,-2.446152 -6.51159,-2.446152 -3.41083,0 -5.96034,1.860454 -2.51506,1.826 -3.92763,5.34019 -1.41256,3.51419 -1.41256,8.509852 0,5.064568 1.37811,8.613215 1.41257,3.54864 3.96208,5.40909 2.54951,1.86046 5.96034,1.86046 2.51506,0 4.51332,-1.03359 2.03272,-1.03359 3.34193,-2.9974 1.34366,-1.99826 1.75709,-4.788942 h 13.85004 q -0.34452,6.063702 -3.30747,10.680382 -2.92849,4.58223 -8.09642,7.16619 -5.16792,2.58396 -12.23076,2.58396 z m 40.30987,-16.26174 0.0344,-17.605401 h 2.13608 l 16.9508,-20.086007 h 16.84744 l -22.77333,26.597594 h -3.47974 z m -13.2988,15.22816 V 47.999997 h 14.67691 v 70.559423 z m 33.07473,0 -15.57268,-23.048954 9.7846,-10.370305 22.98005,33.419259 z M 333.06276,47.999997 V 118.55942 H 318.38585 V 47.999997 Z M 362.82995,119.593 q -8.16532,0 -14.05676,-3.30747 -5.85698,-3.34193 -9.02664,-9.44008 -3.16966,-6.1326 -3.16966,-14.504645 0,-8.165324 3.16966,-14.332382 3.16966,-6.167059 8.92328,-9.612343 5.78808,-3.445284 13.57442,-3.445284 5.23684,0 9.75016,1.688189 4.54777,1.653736 7.92415,4.995662 3.41083,3.341926 5.30574,8.406493 1.89491,5.030115 1.89491,11.782872 v 4.030983 h -44.68534 v -9.09555 h 30.86975 q 0,-3.169662 -1.37812,-5.615814 -1.37811,-2.446152 -3.82426,-3.824265 -2.4117,-1.412567 -5.61582,-1.412567 -3.34192,0 -5.92588,1.550378 -2.54952,1.515925 -3.99653,4.099888 -1.44702,2.549511 -1.48148,5.684719 v 8.647664 q 0,3.927624 1.44702,6.787212 1.48147,2.85958 4.1688,4.40996 2.68732,1.55038 6.37377,1.55038 2.44615,0 4.47887,-0.68906 2.03272,-0.68905 3.47974,-2.06717 1.44702,-1.37811 2.20498,-3.37638 l 13.57442,0.89578 q -1.03358,4.8923 -4.2377,8.5443 -3.16966,3.61755 -8.19978,5.65027 -4.99566,1.99826 -11.5417,1.99826 z m 71.83419,-38.862803 -13.43661,0.826868 q -0.34453,-1.722642 -1.48147,-3.100755 -1.13695,-1.412567 -2.9974,-2.239435 -1.826,-0.861321 -4.37551,-0.861321 -3.41083,0 -5.75363,1.447019 -2.34279,1.412567 -2.34279,3.789813 0,1.894906 1.51592,3.204114 1.51593,1.309208 5.20238,2.101623 l 9.57789,1.92936 q 7.71744,1.58483 11.50725,5.09902 3.78982,3.51419 3.78982,9.233357 0,5.20238 -3.06631,9.13001 -3.03185,3.92762 -8.33759,6.1326 -5.27128,2.17053 -12.16185,2.17053 -10.50812,0 -16.74408,-4.37551 -6.20151,-4.40996 -7.26955,-11.98959 l 14.43574,-0.75796 q 0.65461,3.20411 3.16966,4.8923 2.51506,1.65374 6.44268,1.65374 3.85872,0 6.20152,-1.48147 2.37724,-1.51593 2.41169,-3.89317 -0.0345,-1.99827 -1.68818,-3.27302 -1.65374,-1.309211 -5.09903,-1.998268 l -9.16445,-1.826 q -7.75189,-1.550378 -11.5417,-5.374644 -3.75536,-3.824265 -3.75536,-9.750154 0,-5.099021 2.75622,-8.785475 2.79068,-3.686454 7.8208,-5.684719 5.06457,-1.998264 11.85178,-1.998264 10.02577,0 15.7794,4.237699 5.78808,4.2377 6.75276,11.541702 z"
       id="text1"
       aria-label="Knuckles" /><g
       id="text1-6"
       style="font-size:97.0192px;line-height:1;letter-spacing:-6.0637px;white-space:pre;inline-size:1277.13;fill:#3c3d41;stroke-width:3.03118"
       transform="matrix(0.6604068,0,0,0.6604068,83.769395,30.731513)"
       aria-label="Development Toolkit&#10;for Knockout.js"><path
         style="font-weight:bold;font-family:Inter;-inkscape-font-specification:'Inter Bold'"
         d="M -24.671037,241.95465 H -49.6838 v -70.55942 h 25.21948 q 10.645928,0 18.328912,4.2377 7.6829837,4.20325 11.8173248,12.09295 4.1687939,7.8897 4.1687939,18.88015 0,11.02491 -4.1687939,18.94907 -4.1343411,7.92415 -11.8862305,12.16185 -7.7174363,4.2377 -18.4667233,4.2377 z m -10.094683,-12.782 h 9.474532 q 6.614945,0 11.128268,-2.3428 4.5477749,-2.37724 6.8216625,-7.33845 2.3083404,-4.99566 2.3083404,-12.88537 0,-7.82079 -2.3083404,-12.782 -2.2738876,-4.96121 -6.7872095,-7.304 -4.513323,-2.3428 -11.128268,-2.3428 h -9.508985 z m 73.418945,13.81559 q -8.165323,0 -14.056759,-3.30748 -5.856983,-3.34192 -9.026645,-9.44008 -3.169661,-6.1326 -3.169661,-14.50464 0,-8.16533 3.169661,-14.33238 3.169662,-6.16706 8.923286,-9.61235 5.788078,-3.44528 13.57442,-3.44528 5.236832,0 9.750154,1.68819 4.547775,1.65373 7.924154,4.99566 3.410831,3.34193 5.305738,8.40649 1.894906,5.03012 1.894906,11.78288 v 4.03098 H 18.257143 v -9.09555 h 30.869746 q 0,-3.16966 -1.378114,-5.61582 -1.378113,-2.44615 -3.824265,-3.82426 -2.411699,-1.41257 -5.615813,-1.41257 -3.341926,0 -5.925889,1.55038 -2.54951,1.51593 -3.99653,4.09989 -1.447019,2.54951 -1.481472,5.68472 v 8.64766 q 0,3.92762 1.447019,6.78721 1.481473,2.85959 4.168794,4.40996 2.687322,1.55038 6.373776,1.55038 2.446152,0 4.47887,-0.68905 2.032717,-0.68906 3.479737,-2.06717 1.447019,-1.37812 2.204981,-3.37638 l 13.57442,0.89577 q -1.033585,4.8923 -4.237699,8.54431 -3.169662,3.61754 -8.199777,5.65026 -4.995662,1.99827 -11.541702,1.99827 z M 114.30478,189.03509 95.803605,241.95465 H 79.266241 L 60.765065,189.03509 H 76.268843 L 87.2593,226.89876 h 0.551246 l 10.956003,-37.86367 z m 23.80013,53.95315 q -8.16533,0 -14.05676,-3.30748 -5.85698,-3.34192 -9.02665,-9.44008 -3.16966,-6.1326 -3.16966,-14.50464 0,-8.16533 3.16966,-14.33238 3.16967,-6.16706 8.92329,-9.61235 5.78808,-3.44528 13.57442,-3.44528 5.23683,0 9.75015,1.68819 4.54778,1.65373 7.92416,4.99566 3.41083,3.34193 5.30574,8.40649 1.8949,5.03012 1.8949,11.78288 v 4.03098 h -44.68533 v -9.09555 h 30.86974 q 0,-3.16966 -1.37811,-5.61582 -1.37812,-2.44615 -3.82427,-3.82426 -2.4117,-1.41257 -5.61581,-1.41257 -3.34193,0 -5.92589,1.55038 -2.54951,1.51593 -3.99653,4.09989 -1.44702,2.54951 -1.48147,5.68472 v 8.64766 q 0,3.92762 1.44702,6.78721 1.48147,2.85959 4.16879,4.40996 2.68732,1.55038 6.37378,1.55038 2.44615,0 4.47887,-0.68905 2.03272,-0.68906 3.47973,-2.06717 1.44702,-1.37812 2.20499,-3.37638 l 13.57442,0.89577 q -1.03359,4.8923 -4.2377,8.54431 -3.16966,3.61754 -8.19978,5.65026 -4.99566,1.99827 -11.5417,1.99827 z m 42.48034,-71.59301 v 70.55942 h -14.67691 v -70.55942 z m 29.5605,71.59301 q -8.02751,0 -13.8845,-3.41084 -5.82253,-3.44528 -8.99219,-9.57789 -3.16966,-6.16705 -3.16966,-14.29792 0,-8.19978 3.16966,-14.33239 3.16966,-6.16706 8.99219,-9.57789 5.85699,-3.44528 13.8845,-3.44528 8.02751,0 13.85004,3.44528 5.85699,3.41083 9.02665,9.57789 3.16966,6.13261 3.16966,14.33239 0,8.13087 -3.16966,14.29792 -3.16966,6.13261 -9.02665,9.57789 -5.82253,3.41084 -13.85004,3.41084 z m 0.0689,-11.36944 q 3.652,0 6.09815,-2.06717 2.44615,-2.10163 3.68645,-5.71917 1.27476,-3.61755 1.27476,-8.23423 0,-4.61668 -1.27476,-8.23423 -1.2403,-3.61755 -3.68645,-5.71917 -2.44615,-2.10163 -6.09815,-2.10163 -3.68646,0 -6.20152,2.10163 -2.4806,2.10162 -3.75536,5.71917 -1.2403,3.61755 -1.2403,8.23423 0,4.61668 1.2403,8.23423 1.27476,3.61754 3.75536,5.71917 2.51506,2.06717 6.20152,2.06717 z m 29.4916,30.18069 v -72.7644 h 14.47019 v 8.88883 h 0.6546 q 0.96468,-2.13608 2.79068,-4.34106 1.86046,-2.23943 4.8234,-3.72091 2.9974,-1.51592 7.44182,-1.51592 5.78807,0 10.68038,3.03185 4.8923,2.9974 7.82079,9.0611 2.92849,6.02924 2.92849,15.12479 0,8.85438 -2.85958,14.95254 -2.82513,6.0637 -7.71744,9.19891 -4.85785,3.10075 -10.8871,3.10075 -4.27215,0 -7.26955,-1.41256 -2.96294,-1.41257 -4.85785,-3.54865 -1.8949,-2.17053 -2.89404,-4.37551 h -0.44788 v 28.32024 z m 14.36683,-46.30462 q 0,4.72004 1.30921,8.23423 1.30921,3.51419 3.78981,5.478 2.48061,1.92936 6.02925,1.92936 3.5831,0 6.0637,-1.96381 2.4806,-1.99827 3.75536,-5.51246 1.30921,-3.54864 1.30921,-8.16532 0,-4.58223 -1.27476,-8.06197 -1.27475,-3.47973 -3.75536,-5.44355 -2.4806,-1.96381 -6.09815,-1.96381 -3.5831,0 -6.0637,1.89491 -2.44615,1.8949 -3.75536,5.37464 -1.30921,3.47974 -1.30921,8.19978 z m 40.93001,26.45978 v -52.91956 h 13.98786 v 9.33672 h 0.62015 q 1.65373,-4.65114 5.51245,-7.33846 3.85872,-2.68732 9.23336,-2.68732 5.44355,0 9.26782,2.72177 3.82426,2.68732 5.09902,7.30401 h 0.55124 q 1.61929,-4.54778 5.85699,-7.26955 4.27215,-2.75623 10.09468,-2.75623 7.40736,0 12.02404,4.72004 4.65113,4.68558 4.65113,13.2988 v 35.58978 H 357.25939 V 209.2589 q 0,-4.40996 -2.3428,-6.61494 -2.34279,-2.20498 -5.85698,-2.20498 -3.99653,0 -6.23596,2.54951 -2.23944,2.51505 -2.23944,6.6494 v 32.31676 h -14.22902 v -33.00582 q 0,-3.89317 -2.23944,-6.20151 -2.20498,-2.30834 -5.82253,-2.30834 -2.44615,0 -4.40996,1.2403 -1.92936,1.20585 -3.0663,3.41083 -1.13695,2.17053 -1.13695,5.09902 v 31.76552 z m 106.52818,1.03359 q -8.16532,0 -14.05675,-3.30748 -5.85699,-3.34192 -9.02665,-9.44008 -3.16966,-6.1326 -3.16966,-14.50464 0,-8.16533 3.16966,-14.33238 3.16966,-6.16706 8.92329,-9.61235 5.78807,-3.44528 13.57442,-3.44528 5.23683,0 9.75015,1.68819 4.54778,1.65373 7.92415,4.99566 3.41084,3.34193 5.30574,8.40649 1.89491,5.03012 1.89491,11.78288 v 4.03098 H 381.1352 v -9.09555 h 30.86975 q 0,-3.16966 -1.37812,-5.61582 -1.37811,-2.44615 -3.82426,-3.82426 -2.4117,-1.41257 -5.61581,-1.41257 -3.34193,0 -5.92589,1.55038 -2.54951,1.51593 -3.99653,4.09989 -1.44702,2.54951 -1.48147,5.68472 v 8.64766 q 0,3.92762 1.44701,6.78721 1.48148,2.85959 4.1688,4.40996 2.68732,1.55038 6.37377,1.55038 2.44616,0 4.47887,-0.68905 2.03272,-0.68906 3.47974,-2.06717 1.44702,-1.37812 2.20498,-3.37638 l 13.57442,0.89577 q -1.03358,4.8923 -4.2377,8.54431 -3.16966,3.61754 -8.19977,5.65026 -4.99567,1.99827 -11.54171,1.99827 z m 42.48037,-31.62771 v 30.59412 h -14.67691 v -52.91956 h 13.98785 v 9.33672 h 0.62015 q 1.7571,-4.61669 5.89144,-7.30401 4.13434,-2.72177 10.02577,-2.72177 5.51246,0 9.61235,2.4117 4.09989,2.4117 6.37377,6.89057 2.27389,4.44441 2.27389,10.61147 v 33.69488 h -14.67691 v -31.07646 q 0.0344,-4.85785 -2.48061,-7.57963 -2.51505,-2.75623 -6.92502,-2.75623 -2.96294,0 -5.23683,1.27476 -2.23943,1.27476 -3.51419,3.72091 -1.2403,2.4117 -1.27475,5.82253 z m 67.73421,-22.32544 v 11.0249 h -31.86888 v -11.0249 z m -24.63378,-12.67865 h 14.67691 v 49.33647 q 0,2.03272 0.62015,3.16966 0.62015,1.10249 1.72264,1.55038 1.13695,0.44789 2.61842,0.44789 1.03358,0 2.06717,-0.17227 1.03358,-0.20672 1.58483,-0.31007 l 2.30834,10.92155 q -1.10249,0.34453 -3.10076,0.79241 -1.99826,0.48234 -4.85785,0.5857 -5.30573,0.20672 -9.30226,-1.41257 -3.96208,-1.61928 -6.16706,-5.03011 -2.20498,-3.41083 -2.17053,-8.61321 z m 42.13588,7.33845 v -12.29966 h 57.94968 v 12.29966 h -21.60193 v 58.25976 h -14.74582 v -58.25976 z m 77.38105,59.29335 q -8.02751,0 -13.88449,-3.41084 -5.82253,-3.44528 -8.9922,-9.57789 -3.16966,-6.16705 -3.16966,-14.29792 0,-8.19978 3.16966,-14.33239 3.16967,-6.16706 8.9922,-9.57789 5.85698,-3.44528 13.88449,-3.44528 8.02751,0 13.85004,3.44528 5.85699,3.41083 9.02665,9.57789 3.16966,6.13261 3.16966,14.33239 0,8.13087 -3.16966,14.29792 -3.16966,6.13261 -9.02665,9.57789 -5.82253,3.41084 -13.85004,3.41084 z m 0.0689,-11.36944 q 3.652,0 6.09815,-2.06717 2.44615,-2.10163 3.68645,-5.71917 1.27476,-3.61755 1.27476,-8.23423 0,-4.61668 -1.27476,-8.23423 -1.2403,-3.61755 -3.68645,-5.71917 -2.44615,-2.10163 -6.09815,-2.10163 -3.68646,0 -6.20151,2.10163 -2.48061,2.10162 -3.75536,5.71917 -1.24031,3.61755 -1.24031,8.23423 0,4.61668 1.24031,8.23423 1.27475,3.61754 3.75536,5.71917 2.51505,2.06717 6.20151,2.06717 z m 53.40186,11.36944 q -8.02752,0 -13.8845,-3.41084 -5.82253,-3.44528 -8.99219,-9.57789 -3.16966,-6.16705 -3.16966,-14.29792 0,-8.19978 3.16966,-14.33239 3.16966,-6.16706 8.99219,-9.57789 5.85698,-3.44528 13.8845,-3.44528 8.02751,0 13.85004,3.44528 5.85698,3.41083 9.02664,9.57789 3.16966,6.13261 3.16966,14.33239 0,8.13087 -3.16966,14.29792 -3.16966,6.13261 -9.02664,9.57789 -5.82253,3.41084 -13.85004,3.41084 z m 0.0689,-11.36944 q 3.652,0 6.09815,-2.06717 2.44616,-2.10163 3.68646,-5.71917 1.27475,-3.61755 1.27475,-8.23423 0,-4.61668 -1.27475,-8.23423 -1.2403,-3.61755 -3.68646,-5.71917 -2.44615,-2.10163 -6.09815,-2.10163 -3.68645,0 -6.20151,2.10163 -2.48061,2.10162 -3.75536,5.71917 -1.2403,3.61755 -1.2403,8.23423 0,4.61668 1.2403,8.23423 1.27475,3.61754 3.75536,5.71917 2.51506,2.06717 6.20151,2.06717 z m 44.1685,-60.22357 v 70.55942 h -14.67691 v -70.55942 z m 18.94903,55.33126 0.0345,-17.6054 h 2.13607 l 16.9508,-20.086 h 16.84744 l -22.77333,26.59759 h -3.47974 z m -13.29879,15.22816 v -70.55942 h 14.67691 v 70.55942 z m 33.07472,0 -15.57268,-23.04895 9.78461,-10.37031 22.98004,33.41926 z m 17.29533,0 v -52.91956 h 14.67691 v 52.91956 z m 7.37291,-59.74123 q -3.27302,0 -5.61581,-2.17053 -2.30834,-2.20498 -2.30834,-5.27128 0,-3.03185 2.30834,-5.20238 2.34279,-2.20498 5.61581,-2.20498 3.27302,0 5.58136,2.20498 2.34279,2.17053 2.34279,5.20238 0,3.0663 -2.34279,5.27128 -2.30834,2.17053 -5.58136,2.17053 z m 41.10221,6.82167 v 11.0249 h -31.86888 v -11.0249 z m -24.63378,-12.67865 h 14.67691 v 49.33647 q 0,2.03272 0.62015,3.16966 0.62015,1.10249 1.72264,1.55038 1.13695,0.44789 2.61842,0.44789 1.03358,0 2.06717,-0.17227 1.03359,-0.20672 1.58483,-0.31007 l 2.30834,10.92155 q -1.10249,0.34453 -3.10075,0.79241 -1.99827,0.48234 -4.85786,0.5857 -5.30573,0.20672 -9.30226,-1.41257 -3.96208,-1.61928 -6.16706,-5.03011 -2.20498,-3.41083 -2.17053,-8.61321 z"
         id="path1" /><path
         style="font-weight:bold;font-family:Inter;-inkscape-font-specification:'Inter Bold'"
         d="m -21.501376,287.32905 v 11.02491 H -54.16267 v -11.02491 z m -25.185027,52.91957 v -56.74383 q 0,-5.75363 2.239435,-9.54344 2.273887,-3.78981 6.201511,-5.68472 3.927624,-1.8949 8.923286,-1.8949 3.376379,0 6.167059,0.51679 2.825133,0.51679 4.203247,0.93023 l -2.618416,11.0249 q -0.861321,-0.27562 -2.136076,-0.51679 -1.240303,-0.24117 -2.549511,-0.24117 -3.238567,0 -4.513322,1.51593 -1.274755,1.48147 -1.274755,4.16879 v 56.46821 z m 50.1148886,1.03358 q -8.0275122,0 -13.8844956,-3.41083 -5.82253,-3.44528 -8.992192,-9.57789 -3.169661,-6.16706 -3.169661,-14.29793 0,-8.19977 3.169661,-14.33238 3.169662,-6.16706 8.992192,-9.57789 5.8569834,-3.44528 13.8844956,-3.44528 8.0275124,0 13.8500424,3.44528 5.856983,3.41083 9.026645,9.57789 3.169661,6.13261 3.169661,14.33238 0,8.13087 -3.169661,14.29793 -3.169662,6.13261 -9.026645,9.57789 -5.82253,3.41083 -13.8500424,3.41083 z m 0.068906,-11.36943 q 3.6520013,0 6.098153,-2.06717 2.4461517,-2.10163 3.6864537,-5.71918 1.274756,-3.61754 1.274756,-8.23423 0,-4.61668 -1.274756,-8.23422 -1.240302,-3.61755 -3.6864537,-5.71918 -2.4461517,-2.10162 -6.098153,-2.10162 -3.6864541,0 -6.2015116,2.10162 -2.4806046,2.10163 -3.7553598,5.71918 -1.2403023,3.61754 -1.2403023,8.23422 0,4.61669 1.2403023,8.23423 1.2747552,3.61755 3.7553598,5.71918 2.5150575,2.06717 6.2015116,2.06717 z m 29.4915957,10.33585 v -52.91957 h 14.229024 v 9.23337 h 0.551245 q 1.44702,-4.92676 4.857851,-7.44182 3.410831,-2.54951 7.855248,-2.54951 1.102491,0 2.377246,0.13781 1.274755,0.13781 2.239435,0.37898 v 13.02318 q -1.033586,-0.31008 -2.859586,-0.55125 -1.826001,-0.24117 -3.341926,-0.24117 -3.238567,0 -5.788077,1.41257 -2.515058,1.37811 -3.99653,3.85872 -1.447019,2.4806 -1.447019,5.71917 v 29.93952 z m 50.301151,0 V 269.6892 h 14.91808 v 31.11091 h 0.930227 L 124.53019,269.6892 h 17.88102 l -26.18416,31.59325 26.49424,38.96617 h -17.84657 l -19.32805,-29.00929 -7.338452,8.95773 v 20.05156 z M 158.53513,309.6545 v 30.59412 h -14.67691 v -52.91957 h 13.98785 v 9.33672 h 0.62015 q 1.7571,-4.61668 5.89144,-7.304 4.13434,-2.72177 10.02578,-2.72177 5.51245,0 9.61234,2.4117 4.09989,2.41169 6.37378,6.89056 2.27388,4.44442 2.27388,10.61148 v 33.69488 h -14.67691 v -31.07646 q 0.0345,-4.85786 -2.4806,-7.57963 -2.51506,-2.75623 -6.92502,-2.75623 -2.96295,0 -5.23684,1.27476 -2.23943,1.27475 -3.51419,3.7209 -1.2403,2.4117 -1.27475,5.82254 z m 63.49651,31.6277 q -8.02751,0 -13.88449,-3.41083 -5.82253,-3.44528 -8.99219,-9.57789 -3.16966,-6.16706 -3.16966,-14.29793 0,-8.19977 3.16966,-14.33238 3.16966,-6.16706 8.99219,-9.57789 5.85698,-3.44528 13.88449,-3.44528 8.02752,0 13.85005,3.44528 5.85698,3.41083 9.02664,9.57789 3.16966,6.13261 3.16966,14.33238 0,8.13087 -3.16966,14.29793 -3.16966,6.13261 -9.02664,9.57789 -5.82253,3.41083 -13.85005,3.41083 z m 0.0689,-11.36943 q 3.652,0 6.09815,-2.06717 2.44616,-2.10163 3.68646,-5.71918 1.27475,-3.61754 1.27475,-8.23423 0,-4.61668 -1.27475,-8.23422 -1.2403,-3.61755 -3.68646,-5.71918 -2.44615,-2.10162 -6.09815,-2.10162 -3.68645,0 -6.20151,2.10162 -2.48061,2.10163 -3.75536,5.71918 -1.2403,3.61754 -1.2403,8.23422 0,4.61669 1.2403,8.23423 1.27475,3.61755 3.75536,5.71918 2.51506,2.06717 6.20151,2.06717 z m 53.40187,11.36943 q -8.13087,0 -13.98785,-3.44528 -5.82253,-3.47974 -8.95774,-9.6468 -3.10075,-6.16705 -3.10075,-14.19457 0,-8.13087 3.1352,-14.26347 3.16967,-6.16706 8.9922,-9.61235 5.82253,-3.47973 13.85004,-3.47973 6.92502,0 12.1274,2.51505 5.20238,2.51506 8.23423,7.06284 3.03185,4.54777 3.34192,10.68038 h -13.85004 q -0.5857,-3.96208 -3.10075,-6.37378 -2.48061,-2.44615 -6.51159,-2.44615 -3.41083,0 -5.96034,1.86045 -2.51506,1.826 -3.92763,5.34019 -1.41256,3.51419 -1.41256,8.50986 0,5.06456 1.37811,8.61321 1.41257,3.54864 3.96208,5.40909 2.54951,1.86046 5.96034,1.86046 2.51506,0 4.51332,-1.03359 2.03272,-1.03358 3.34193,-2.9974 1.34366,-1.99826 1.75709,-4.78894 h 13.85004 q -0.34452,6.0637 -3.30747,10.68038 -2.92849,4.58223 -8.09642,7.16619 -5.16792,2.58396 -12.23076,2.58396 z m 40.30988,-16.26174 0.0345,-17.6054 h 2.13607 l 16.9508,-20.08601 h 16.84744 l -22.77333,26.5976 h -3.47973 z m -13.29879,15.22816 V 269.6892 h 14.67691 v 70.55942 z m 33.07473,0 -15.57269,-23.04895 9.78461,-10.37031 22.98004,33.41926 z m 39.00058,1.03358 q -8.02751,0 -13.8845,-3.41083 -5.82253,-3.44528 -8.99219,-9.57789 -3.16966,-6.16706 -3.16966,-14.29793 0,-8.19977 3.16966,-14.33238 3.16966,-6.16706 8.99219,-9.57789 5.85699,-3.44528 13.8845,-3.44528 8.02751,0 13.85004,3.44528 5.85698,3.41083 9.02665,9.57789 3.16966,6.13261 3.16966,14.33238 0,8.13087 -3.16966,14.29793 -3.16967,6.13261 -9.02665,9.57789 -5.82253,3.41083 -13.85004,3.41083 z m 0.0689,-11.36943 q 3.65201,0 6.09816,-2.06717 2.44615,-2.10163 3.68645,-5.71918 1.27476,-3.61754 1.27476,-8.23423 0,-4.61668 -1.27476,-8.23422 -1.2403,-3.61755 -3.68645,-5.71918 -2.44615,-2.10162 -6.09816,-2.10162 -3.68645,0 -6.20151,2.10162 -2.4806,2.10163 -3.75536,5.71918 -1.2403,3.61754 -1.2403,8.23422 0,4.61669 1.2403,8.23423 1.27476,3.61755 3.75536,5.71918 2.51506,2.06717 6.20151,2.06717 z m 63.42764,-12.19631 v -30.38741 h 14.67691 v 52.91957 h -14.09121 v -9.61234 h -0.55125 q -1.79154,4.65113 -5.96034,7.47626 -4.13434,2.82514 -10.09468,2.82514 -5.30574,0 -9.33672,-2.4117 -4.03098,-2.4117 -6.30487,-6.85612 -2.23944,-4.44442 -2.27389,-10.64593 v -33.69488 h 14.67691 v 31.07647 q 0.0345,4.68558 2.51506,7.40736 2.4806,2.72177 6.6494,2.72177 2.65287,0 4.96121,-1.20585 2.30834,-1.2403 3.7209,-3.652 1.44702,-2.4117 1.41257,-5.96034 z m 48.47511,-30.38741 v 11.02491 h -31.86888 v -11.02491 z m -24.63379,-12.67864 h 14.67692 v 49.33647 q 0,2.03272 0.62015,3.16966 0.62015,1.10249 1.72264,1.55038 1.13694,0.44788 2.61841,0.44788 1.03359,0 2.06717,-0.17226 1.03359,-0.20672 1.58484,-0.31008 l 2.30834,10.92155 q -1.10249,0.34453 -3.10076,0.79242 -1.99826,0.48234 -4.85785,0.5857 -5.30574,0.20672 -9.30227,-1.41257 -3.96207,-1.61928 -6.16706,-5.03011 -2.20498,-3.41083 -2.17053,-8.61321 z m 36.69229,66.49398 q -3.41083,0 -5.85698,-2.4117 -2.4117,-2.44615 -2.4117,-5.85698 0,-3.37638 2.4117,-5.78808 2.44615,-2.4117 5.85698,-2.4117 3.30747,0 5.78808,2.4117 2.4806,2.4117 2.4806,5.78808 0,2.27389 -1.1714,4.16879 -1.13694,1.86046 -2.99739,2.9974 -1.86046,1.10249 -4.09989,1.10249 z m 14.22892,-53.81534 h 14.67691 v 55.53798 q 0,6.13261 -2.4117,9.92242 -2.4117,3.78982 -6.92502,5.54691 -4.47887,1.7571 -10.71483,1.7571 -0.75797,0 -1.44702,-0.0345 -0.72351,0 -1.51593,-0.0345 v -11.4728 q 0.5857,0.0345 1.03359,0.0345 0.41343,0.0344 0.89577,0.0344 3.54864,0 4.96121,-1.51593 1.44702,-1.48147 1.44702,-4.47886 z m 7.304,-6.82166 q -3.23857,0 -5.58136,-2.17053 -2.34279,-2.20498 -2.34279,-5.27128 0,-3.03185 2.34279,-5.20238 2.34279,-2.20498 5.58136,-2.20498 3.30747,0 5.61581,2.20498 2.3428,2.17053 2.3428,5.20238 0,3.0663 -2.3428,5.27128 -2.30834,2.17053 -5.61581,2.17053 z m 57.05388,21.91201 -13.43661,0.82687 q -0.34453,-1.72265 -1.48147,-3.10076 -1.13694,-1.41257 -2.9974,-2.23943 -1.826,-0.86132 -4.37551,-0.86132 -3.41083,0 -5.75362,1.44701 -2.3428,1.41257 -2.3428,3.78982 0,1.8949 1.51593,3.20411 1.51592,1.30921 5.20238,2.10162 l 9.57789,1.92936 q 7.71743,1.58483 11.50725,5.09902 3.78981,3.51419 3.78981,9.23337 0,5.20238 -3.0663,9.13 -3.03185,3.92762 -8.33759,6.13261 -5.27129,2.17052 -12.16186,2.17052 -10.50811,0 -16.74408,-4.37551 -6.20151,-4.40996 -7.26955,-11.98959 l 14.43574,-0.75796 q 0.65461,3.20412 3.16967,4.89231 2.51505,1.65373 6.44268,1.65373 3.85872,0 6.20151,-1.48147 2.37725,-1.51593 2.4117,-3.89317 -0.0345,-1.99827 -1.68819,-3.27302 -1.65374,-1.30921 -5.09902,-1.99827 l -9.16446,-1.826 q -7.75189,-1.55037 -11.5417,-5.37464 -3.75536,-3.82427 -3.75536,-9.75015 0,-5.09903 2.75623,-8.78548 2.79068,-3.68645 7.82079,-5.68472 5.06457,-1.99826 11.85178,-1.99826 10.02578,0 15.7794,4.2377 5.78808,4.2377 6.75276,11.5417 z"
         id="path5" /></g></g></svg>
