<?xml version="1.0" encoding="UTF-8" standalone="no"?>
<!-- Created with Inkscape (http://www.inkscape.org/) -->

<svg
   width="1000"
   height="300"
   viewBox="0 0 1000 300"
   version="1.1"
   id="svg1"
   xml:space="preserve"
   inkscape:version="1.3.2 (091e20e, 2023-11-25, custom)"
   sodipodi:docname="knuckles-banner.svg"
   xmlns:inkscape="http://www.inkscape.org/namespaces/inkscape"
   xmlns:sodipodi="http://sodipodi.sourceforge.net/DTD/sodipodi-0.dtd"
   xmlns:xlink="http://www.w3.org/1999/xlink"
   xmlns="http://www.w3.org/2000/svg"
   xmlns:svg="http://www.w3.org/2000/svg"><sodipodi:namedview
     id="namedview1"
     pagecolor="#ffffff"
     bordercolor="#000000"
     borderopacity="0.25"
     inkscape:showpageshadow="2"
     inkscape:pageopacity="0.0"
     inkscape:pagecheckerboard="0"
     inkscape:deskcolor="#d1d1d1"
     inkscape:document-units="px"
     inkscape:zoom="1.0449705"
     inkscape:cx="466.52033"
     inkscape:cy="121.05604"
     inkscape:window-width="2560"
     inkscape:window-height="1369"
     inkscape:window-x="-8"
     inkscape:window-y="-8"
     inkscape:window-maximized="1"
     inkscape:current-layer="layer1-5" /><defs
     id="defs1"><linearGradient
       id="linearGradient15"
       inkscape:collect="always"><stop
         style="stop-color:#ffffff;stop-opacity:1;"
         offset="0"
         id="stop16" /><stop
         style="stop-color:#f2caa9;stop-opacity:1;"
         offset="1"
         id="stop17" /></linearGradient><linearGradient
       id="linearGradient2"
       inkscape:collect="always"><stop
         style="stop-color:#ee2d08;stop-opacity:1;"
         offset="0"
         id="stop2" /><stop
         style="stop-color:#f27c46;stop-opacity:0.80000001;"
         offset="0.5"
         id="stop15" /><stop
         style="stop-color:#ec2e08;stop-opacity:0.80000001;"
         offset="1"
         id="stop14" /></linearGradient><inkscape:path-effect
       effect="fillet_chamfer"
       id="path-effect8"
       is_visible="true"
       lpeversion="1"
       nodesatellites_param="F,0,0,1,0,10,0,1 @ F,0,0,1,0,10,0,1 @ F,0,0,1,0,10,0,1 @ F,0,0,1,0,10,0,1 @ F,0,0,1,0,10,0,1 @ F,0,0,1,0,10,0,1 @ F,0,0,1,0,10,0,1 @ F,0,0,1,0,10,0,1"
       radius="10"
       unit="px"
       method="auto"
       mode="F"
       chamfer_steps="1"
       flexible="false"
       use_knot_distance="true"
       apply_no_radius="true"
       apply_with_radius="true"
       only_selected="false"
       hide_knots="false" /><linearGradient
       id="linearGradient7"
       inkscape:collect="always"><stop
         style="stop-color:#d72a08;stop-opacity:1"
         offset="0"
         id="stop7" /><stop
         style="stop-color:#d72a08;stop-opacity:1"
         offset="0.5"
         id="stop9" /><stop
         style="stop-color:#f52d0c;stop-opacity:1"
         offset="0.5"
         id="stop10" /><stop
         style="stop-color:#f52d0c;stop-opacity:1"
         offset="1"
         id="stop8" /></linearGradient><inkscape:path-effect
       effect="fillet_chamfer"
       id="path-effect6"
       is_visible="true"
       lpeversion="1"
       nodesatellites_param="F,0,0,1,0,10,0,1 @ F,0,0,1,0,10,0,1 @ F,0,0,1,0,10,0,1 @ F,0,0,1,0,10,0,1 @ F,0,0,1,0,10,0,1 @ F,0,0,1,0,10,0,1 @ F,0,0,1,0,10,0,1 @ F,0,0,1,0,10,0,1"
       radius="10"
       unit="px"
       method="auto"
       mode="F"
       chamfer_steps="1"
       flexible="false"
       use_knot_distance="true"
       apply_no_radius="true"
       apply_with_radius="true"
       only_selected="false"
       hide_knots="false" /><inkscape:path-effect
       effect="fillet_chamfer"
       id="path-effect5"
       is_visible="true"
       lpeversion="1"
       nodesatellites_param="F,0,0,1,0,0,0,1 @ F,0,0,1,0,0,0,1 @ F,0,0,1,0,0,0,1 @ F,0,0,1,0,0,0,1 @ F,0,0,1,0,0,0,1 | F,0,0,1,0,0,0,1 @ F,0,0,1,0,0,0,1 @ F,0,0,1,0,0,0,1 @ F,0,0,1,0,0,0,1 @ F,0,0,1,0,0,0,1"
       radius="0"
       unit="px"
       method="auto"
       mode="F"
       chamfer_steps="1"
       flexible="false"
       use_knot_distance="true"
       apply_no_radius="true"
       apply_with_radius="true"
       only_selected="false"
       hide_knots="false" /><inkscape:path-effect
       effect="fillet_chamfer"
       id="path-effect4"
       is_visible="true"
       lpeversion="1"
       nodesatellites_param="F,0,0,1,0,0,0,1 @ F,0,0,1,0,0,0,1 @ F,0,0,1,0,0,0,1 @ F,0,0,1,0,0,0,1 @ F,0,0,1,0,0,0,1 | F,0,0,1,0,0,0,1 @ F,0,0,1,0,0,0,1 @ F,0,0,1,0,0,0,1 @ F,0,0,1,0,0,0,1 @ F,0,0,1,0,0,0,1"
       radius="0"
       unit="px"
       method="auto"
       mode="F"
       chamfer_steps="1"
       flexible="false"
       use_knot_distance="true"
       apply_no_radius="true"
       apply_with_radius="true"
       only_selected="false"
       hide_knots="false" /><inkscape:path-effect
       effect="mirror_symmetry"
       start_point="256,59.810299"
       end_point="256,465.14464"
       center_point="256,262.47747"
       id="path-effect3"
       is_visible="true"
       lpeversion="1.2"
       lpesatellites=""
       mode="free"
       discard_orig_path="false"
       fuse_paths="false"
       oposite_fuse="false"
       split_items="false"
       split_open="false"
       link_styles="false" /><inkscape:path-effect
       effect="mirror_symmetry"
       start_point="256,59.810293"
       end_point="256,430.63415"
       center_point="256,245.22222"
       id="path-effect2"
       is_visible="true"
       lpeversion="1.2"
       lpesatellites=""
       mode="free"
       discard_orig_path="false"
       fuse_paths="false"
       oposite_fuse="false"
       split_items="false"
       split_open="false"
       link_styles="false" /><linearGradient
       inkscape:collect="always"
       xlink:href="#linearGradient7"
       id="linearGradient8"
       x1="68.669478"
       y1="263.19888"
       x2="443.33052"
       y2="263.19888"
       gradientUnits="userSpaceOnUse" /><filter
       inkscape:collect="always"
       style="color-interpolation-filters:sRGB"
       id="filter3"
       x="-0.096380746"
       y="-0.10756124"
       width="1.1927678"
       height="1.2151123"><feGaussianBlur
         inkscape:collect="always"
         stdDeviation="10.965636"
         id="feGaussianBlur3" /></filter><filter
       inkscape:collect="always"
       style="color-interpolation-filters:sRGB"
       id="filter8"
       x="-0.083413036"
       y="-0.078153209"
       width="1.1668261"
       height="1.1563064"><feGaussianBlur
         inkscape:collect="always"
         stdDeviation="13.021506"
         id="feGaussianBlur8" /></filter><linearGradient
       inkscape:collect="always"
       xlink:href="#linearGradient7"
       id="linearGradient1"
       gradientUnits="userSpaceOnUse"
       x1="68.669478"
       y1="263.19888"
       x2="443.33052"
       y2="263.19888" /><linearGradient
       inkscape:collect="always"
       xlink:href="#linearGradient2"
       id="linearGradient3"
       x1="65.71387"
       y1="112.2526"
       x2="453.58386"
       y2="112.2526"
       gradientUnits="userSpaceOnUse"
       gradientTransform="translate(-17.713877,-28.456083)" /><linearGradient
       inkscape:collect="always"
       xlink:href="#linearGradient15"
       id="linearGradient17"
       x1="-0.95696479"
       y1="300.24347"
       x2="1000"
       y2="2.6274242"
       gradientUnits="userSpaceOnUse" /><inkscape:path-effect
       effect="fillet_chamfer"
       id="path-effect8-3"
       is_visible="true"
       lpeversion="1"
       nodesatellites_param="F,0,0,1,0,10,0,1 @ F,0,0,1,0,10,0,1 @ F,0,0,1,0,10,0,1 @ F,0,0,1,0,10,0,1 @ F,0,0,1,0,10,0,1 @ F,0,0,1,0,10,0,1 @ F,0,0,1,0,10,0,1 @ F,0,0,1,0,10,0,1"
       radius="10"
       unit="px"
       method="auto"
       mode="F"
       chamfer_steps="1"
       flexible="false"
       use_knot_distance="true"
       apply_no_radius="true"
       apply_with_radius="true"
       only_selected="false"
       hide_knots="false" /><linearGradient
       inkscape:collect="always"
       xlink:href="#linearGradient7"
       id="linearGradient8-4-1"
       x1="68.669479"
       y1="263.19888"
       x2="443.33051"
       y2="263.19888"
       gradientUnits="userSpaceOnUse" /><filter
       inkscape:collect="always"
       style="color-interpolation-filters:sRGB"
       id="filter8-4-6"
       x="-0.083413036"
       y="-0.078153209"
       width="1.1668261"
       height="1.1563064"><feGaussianBlur
         inkscape:collect="always"
         stdDeviation="13.021506"
         id="feGaussianBlur8-5-8" /></filter><inkscape:path-effect
       effect="fillet_chamfer"
       id="path-effect8-3-7"
       is_visible="true"
       lpeversion="1"
       nodesatellites_param="F,0,0,1,0,10,0,1 @ F,0,0,1,0,10,0,1 @ F,0,0,1,0,10,0,1 @ F,0,0,1,0,10,0,1 @ F,0,0,1,0,10,0,1 @ F,0,0,1,0,10,0,1 @ F,0,0,1,0,10,0,1 @ F,0,0,1,0,10,0,1"
       radius="10"
       unit="px"
       method="auto"
       mode="F"
       chamfer_steps="1"
       flexible="false"
       use_knot_distance="true"
       apply_no_radius="true"
       apply_with_radius="true"
       only_selected="false"
       hide_knots="false" /><filter
       inkscape:collect="always"
       style="color-interpolation-filters:sRGB"
       id="filter17"
       x="-0.57960676"
       y="-0.57960676"
       width="2.1592135"
       height="2.1592135"><feGaussianBlur
         inkscape:collect="always"
         stdDeviation="52.4619"
         id="feGaussianBlur17" /></filter></defs><g
     inkscape:label="Lager 1"
     inkscape:groupmode="layer"
     id="layer1"><rect
       style="fill:url(#linearGradient17);fill-opacity:1;stroke:none;stroke-width:2.1131;stroke-dasharray:none"
       id="rect15"
       width="1000"
       height="300"
       x="0"
       y="0" /><circle
       style="opacity:0.63649;fill:#ff5222;fill-opacity:1;stroke:none;stroke-width:3.03118;stroke-dasharray:none;filter:url(#filter17)"
       id="path17"
       cx="794.48718"
       cy="134.43364"
       r="108.6155"
       transform="matrix(1.2784331,0,0,1.2784331,-222.90322,-26.942293)" /><g
       inkscape:label="Lager 1"
       id="layer1-5"
       transform="matrix(0.5667464,0,0,0.5667464,696.69248,4.5465263)"><path
         id="path4-7-4"
         style="mix-blend-mode:normal;fill:url(#linearGradient8-4-1);filter:url(#filter8-4-6)"
         d="m 247.71402,65.397809 c -9.50437,5.729122 -27.52328,14.910625 -55.78348,22.927474 -5.3129,1.507166 -13.99813,3.70324 -19.41356,4.784258 -36.97747,7.381389 -76.144943,5.004989 -94.017291,3.269563 -5.496213,-0.533689 -9.927276,3.336608 -9.828594,8.858506 0.738659,41.33281 6.651224,199.67594 53.754265,263.71417 3.27082,4.44679 9.33448,11.05555 13.1728,15.02633 45.02214,46.57588 91.67972,69.41013 111.07866,77.55564 5.09113,2.13773 13.55533,2.1377 18.64656,-9e-5 19.39909,-8.14559 66.05659,-30.97989 111.07861,-77.55571 3.83823,-3.9707 9.90188,-10.57943 13.17275,-15.02631 47.10302,-64.0384 53.01552,-222.38168 53.75416,-263.7142 0.0987,-5.521804 -4.33271,-9.39198 -9.82933,-8.858264 -17.87281,1.735431 -57.0401,4.111684 -94.01728,-3.26978 -5.41502,-1.080957 -14.10001,-3.276967 -19.41301,-4.784164 -28.26025,-8.016882 -46.27915,-17.198417 -55.78346,-22.92752 -4.72693,-2.849342 -11.84478,-2.849291 -16.5718,9.7e-5 z"
         transform="matrix(1.0762823,0,0,1.0762823,-62.260323,-31.257801)"
         inkscape:original-d="m 256,59.810547 c 0,0 -21.73113,17.974397 -73.72852,31.101562 -52.42569,13.235301 -113.705074,4.326172 -113.705074,4.326172 0,0 -0.583594,214.944129 60.183594,281.453129 60.7672,66.50898 127.25,88.45312 127.25,88.45312 0,0 66.4828,-21.94414 127.25,-88.45312 60.76719,-66.509 60.18359,-281.453129 60.18359,-281.453129 0,0 -61.27938,8.909129 -113.70507,-4.326172 C 277.73113,77.784944 256,59.810547 256,59.810547 Z"
         inkscape:path-effect="#path-effect8-3-7" /><path
         id="path2"
         style="fill:url(#linearGradient1)"
         d="m 247.71402,65.397809 c -9.50437,5.729122 -27.52328,14.910625 -55.78348,22.927474 -5.3129,1.507166 -13.99813,3.70324 -19.41356,4.784258 -36.97747,7.381389 -76.144943,5.004989 -94.017291,3.269563 -5.496213,-0.533689 -9.927276,3.336608 -9.828594,8.858506 0.738659,41.33281 6.651224,199.67594 53.754265,263.71417 3.27082,4.44679 9.33448,11.05555 13.1728,15.02633 45.02214,46.57588 91.67972,69.41013 111.07866,77.55564 5.09113,2.13773 13.55533,2.1377 18.64656,-9e-5 19.39909,-8.14559 66.05659,-30.97989 111.07861,-77.55571 3.83823,-3.9707 9.90188,-10.57943 13.17275,-15.02631 47.10302,-64.0384 53.01552,-222.38168 53.75416,-263.7142 0.0987,-5.521804 -4.33271,-9.39198 -9.82933,-8.858264 -17.87281,1.735431 -57.0401,4.111684 -94.01728,-3.26978 -5.41502,-1.080957 -14.10001,-3.276967 -19.41301,-4.784164 -28.26025,-8.016882 -46.27915,-17.198417 -55.78346,-22.92752 -4.72693,-2.849342 -11.84478,-2.849291 -16.5718,9.7e-5 z"
         inkscape:original-d="m 256,59.810547 c 0,0 -21.73113,17.974397 -73.72852,31.101562 -52.42569,13.235301 -113.705074,4.326172 -113.705074,4.326172 0,0 -0.583594,214.944129 60.183594,281.453129 60.7672,66.50898 127.25,88.45312 127.25,88.45312 0,0 66.4828,-21.94414 127.25,-88.45312 60.76719,-66.509 60.18359,-281.453129 60.18359,-281.453129 0,0 -61.27938,8.909129 -113.70507,-4.326172 C 277.73113,77.784944 256,59.810547 256,59.810547 Z"
         inkscape:path-effect="#path-effect6"
         transform="matrix(1.0762823,0,0,1.0762823,-64.899,-24.888364)" /><path
         id="path4"
         style="mix-blend-mode:normal;fill:url(#linearGradient8);filter:url(#filter8)"
         d="m 247.71402,65.397809 c -9.50437,5.729122 -27.52328,14.910625 -55.78348,22.927474 -5.3129,1.507166 -13.99813,3.70324 -19.41356,4.784258 -36.97747,7.381389 -76.144943,5.004989 -94.017291,3.269563 -5.496213,-0.533689 -9.927276,3.336608 -9.828594,8.858506 0.738659,41.33281 6.651224,199.67594 53.754265,263.71417 3.27082,4.44679 9.33448,11.05555 13.1728,15.02633 45.02214,46.57588 91.67972,69.41013 111.07866,77.55564 5.09113,2.13773 13.55533,2.1377 18.64656,-9e-5 19.39909,-8.14559 66.05659,-30.97989 111.07861,-77.55571 3.83823,-3.9707 9.90188,-10.57943 13.17275,-15.02631 47.10302,-64.0384 53.01552,-222.38168 53.75416,-263.7142 0.0987,-5.521804 -4.33271,-9.39198 -9.82933,-8.858264 -17.87281,1.735431 -57.0401,4.111684 -94.01728,-3.26978 -5.41502,-1.080957 -14.10001,-3.276967 -19.41301,-4.784164 -28.26025,-8.016882 -46.27915,-17.198417 -55.78346,-22.92752 -4.72693,-2.849342 -11.84478,-2.849291 -16.5718,9.7e-5 z"
         transform="matrix(1.0762823,0,0,1.0762823,-64.899012,-24.888357)"
         inkscape:original-d="m 256,59.810547 c 0,0 -21.73113,17.974397 -73.72852,31.101562 -52.42569,13.235301 -113.705074,4.326172 -113.705074,4.326172 0,0 -0.583594,214.944129 60.183594,281.453129 60.7672,66.50898 127.25,88.45312 127.25,88.45312 0,0 66.4828,-21.94414 127.25,-88.45312 60.76719,-66.509 60.18359,-281.453129 60.18359,-281.453129 0,0 -61.27938,8.909129 -113.70507,-4.326172 C 277.73113,77.784944 256,59.810547 256,59.810547 Z"
         inkscape:path-effect="#path-effect8" /><path
         style="font-size:297.869px;font-family:'Segoe UI';-inkscape-font-specification:'Segoe UI';letter-spacing:-18.6168px;mix-blend-mode:normal;fill:#faaa9b;fill-opacity:1;stroke:#f66a49;stroke-width:8;stroke-dasharray:none;stroke-opacity:1;filter:url(#filter3)"
         d="m 413.26973,302.97019 q -0.14544,2.47254 -0.43633,6.69041 -0.14544,0.72722 -0.29089,1.45444 0,0.72722 -0.14544,1.309 -1.30899,10.90828 -6.39953,20.50758 -3.05432,5.52686 -7.56308,9.89018 -8.43574,9.45385 -20.50758,13.08995 -0.72722,0.29088 -1.45444,0.58177 -0.72722,0.29089 -1.45444,0.58178 l -79.99411,27.63433 q -10.6174,4.36331 -21.96202,4.07242 -11.34462,-0.29088 -21.67113,-5.09053 -16.72604,-8.2903 -23.56191,-25.74356 -0.14544,0 -0.29088,0 0,0 -0.14545,0 h -0.14544 q -6.10864,0.72722 -12.36273,0.72722 -16.58059,-0.72722 -28.50699,-12.50817 -3.6361,-3.49065 -6.69042,-7.70853 -3.34521,2.90888 -7.12674,4.94509 -12.50818,6.69042 -26.47078,4.79965 -11.34462,-0.29089 -21.38025,-5.81775 -9.89018,-5.38142 -16.28971,-14.68983 -11.199175,-20.94391 -9.453849,-44.65126 v -70.10393 q -0.145444,-14.98072 7.126749,-28.21611 7.27219,-13.23539 20.07125,-21.2348 h 0.14544 l 0.14545,-0.14544 q 7.56308,-3.92698 15.70793,-6.54497 12.21728,-2.76344 21.52569,-11.19918 10.90829,-11.63551 25.74356,-17.45326 14.83527,-5.81775 30.68865,-4.6542 17.45326,0.87266 32.57942,-7.99942 14.10805,-8.14485 30.54321,-8.58118 19.78036,1.01811 37.23362,10.76284 1.59988,0.72722 2.76344,1.309 1.30899,0.58177 2.3271,1.0181 1.16355,0.58178 1.74532,0.72722 l 0.43633,0.14545 h 0.14545 q 10.47195,1.45444 20.94391,0.29088 2.76343,-0.14544 5.67231,-0.29088 2.90888,-0.14545 5.67231,-0.14545 11.05373,-0.43633 21.08936,4.07243 10.03562,4.50876 17.16237,12.9445 13.52628,17.30782 12.9445,39.41528 l 1.89077,123.48183 v 1.16355 q 0,0.29088 0,0.58177 0,0.29089 0,0.58178 z M 200.77628,330.8954 q 5.81775,5.9632 14.10805,6.83587 8.43575,0.14544 16.72604,-2.03622 0.87267,-0.14544 1.45444,-0.14544 4.50876,-2.18166 7.12675,-6.39953 4.6542,-6.83586 5.23598,-15.2716 0,-0.29089 0,-0.58178 0,-0.43633 0,-0.87266 0,-0.58178 0.14544,-1.16355 V 205.37737 q 0,-4.36332 3.05432,-7.41764 3.05432,-3.05432 7.41764,-3.05432 4.36332,0 7.41764,3.05432 3.05432,3.05432 3.05432,7.41764 v 107.04667 q 0,0.58177 -0.14545,1.16355 0,0.43633 0,1.0181 -0.43633,4.79965 1.309,9.45385 1.74532,4.50876 5.23598,7.85397 10.32651,6.25409 22.2529,5.09054 5.38143,0.29088 10.18107,-2.03622 4.94509,-2.18166 8.14486,-6.39953 5.67231,-6.9813 6.10864,-16.14426 V 205.37737 q 0,-4.36332 3.05432,-7.41764 3.05432,-3.05432 7.41764,-3.05432 4.36331,0 7.41763,3.05432 3.05432,3.05432 3.05432,7.41764 v 94.5385 q 0.14545,0.43633 0.14545,0.87266 -0.72722,12.07184 3.92698,23.27101 2.03621,4.65421 6.25409,7.41764 6.10864,3.49065 13.08994,3.05432 8.43574,0.43633 15.85338,-3.6361 1.89077,-1.16355 3.49065,-2.76343 6.83586,-8.14485 8.43574,-18.61681 0.14545,-1.59988 0.29089,-2.47255 0.14545,-2.3271 0.14545,-3.92698 0.14544,-0.72722 0.14544,-2.18166 l -1.89077,-123.48182 v -0.14544 q 0.58178,-14.54439 -8.14486,-26.17989 -4.07242,-4.79965 -9.89018,-7.2722 -5.81775,-2.61799 -12.21728,-2.18165 -2.18166,0 -4.6542,0.14544 -2.47255,0 -5.38142,0.29089 -13.23539,1.30899 -26.32534,-0.72722 -6.54497,-1.74533 -12.50817,-4.94509 -13.08995,-7.56308 -28.07066,-8.58119 -11.49006,0.58178 -21.2348,6.39953 -19.92581,11.34462 -42.76049,10.18107 -11.05373,-0.87266 -21.38025,2.90888 -10.32651,3.78154 -18.18048,11.6355 -12.9445,13.08995 -30.68865,17.59871 -6.39953,2.03621 -12.36272,5.09053 l -0.29089,0.14545 q -7.85397,5.23598 -12.21728,13.52627 -4.36332,8.2903 -4.21788,17.59871 v 70.10393 q -1.45443,17.45326 6.10865,33.45208 3.92698,5.23598 9.74473,7.99942 5.81776,2.90887 13.38084,3.19976 7.56308,0.29089 13.38083,-2.61799 4.6542,-2.90888 7.99941,-6.9813 0.14545,-0.29089 0.43633,-0.58178 0.43633,-0.43633 0.72722,-0.72722 v -95.12027 q 0,-4.21787 3.05432,-7.41764 3.05432,-3.05432 7.41764,-3.05432 4.36331,0 7.41763,3.05432 3.05433,3.19977 3.05433,7.41764 v 96.28382 q 0.29088,0.58178 0.58177,1.309 2.03621,6.9813 7.56308,11.6355 z m 87.41175,34.03386 v 0 l 49.59635,-17.16237 q -4.07243,-2.90888 -7.27219,-6.9813 -0.14545,0.29088 -0.29089,0.43633 -0.14544,0.29089 -0.29089,0.43633 -6.39953,7.99941 -15.56249,12.21728 -9.01752,4.36332 -19.19859,4.07243 -19.19858,1.30899 -35.19741,-9.59929 -2.47254,-2.03622 -4.50876,-4.50876 -3.3452,4.21787 -7.85396,7.41763 4.07242,9.16296 12.9445,13.67172 6.54497,2.90888 13.67172,2.90888 7.12675,0 13.67172,-2.76343 z"
         id="path3"
         aria-label="👊"
         transform="matrix(0.90653443,0,0,0.90653443,-21.444451,33.699177)" /><path
         style="font-size:297.869px;font-family:'Segoe UI';-inkscape-font-specification:'Segoe UI';letter-spacing:-18.6168px;fill:#faaa9b;fill-opacity:1;stroke:#f66a49;stroke-width:7.25228;stroke-dasharray:none;stroke-opacity:1"
         d="m 353.1988,308.35209 q -0.13185,2.24144 -0.39555,6.06509 -0.13185,0.65925 -0.2637,1.3185 0,0.65925 -0.13185,1.18665 -1.18664,9.88873 -5.80139,18.59083 -2.76885,5.01029 -6.8562,8.96579 -7.64729,8.57024 -18.59082,11.86649 -0.65925,0.26369 -1.3185,0.52739 -0.65925,0.2637 -1.3185,0.5274 l -72.51742,25.05148 q -9.62504,3.95549 -19.90933,3.69178 -10.28428,-0.26369 -19.64562,-4.61474 -15.16273,-7.51544 -21.35968,-23.33742 -0.13185,0 -0.2637,0 0,0 -0.13185,0 h -0.13185 q -5.53769,0.65925 -11.20724,0.65925 -15.03087,-0.65925 -25.84257,-11.33909 -3.29625,-3.16439 -6.06509,-6.98804 -3.03255,2.637 -6.46064,4.48289 -11.33909,6.0651 -23.99667,4.35105 -10.28429,-0.2637 -19.381932,-5.27399 -8.96579,-4.87844 -14.76719,-13.31684 -10.15243,-18.98637 -8.57024,-40.4779 v -63.55163 q -0.13185,-13.58054 6.46065,-25.57887 6.59249,-11.99834 18.19528,-19.25008 h 0.13184 l 0.13186,-0.13185 q 6.856192,-3.55994 14.239782,-5.93324 11.07538,-2.50515 19.51378,-10.15244 9.88874,-10.54799 23.33742,-15.82198 13.44868,-5.27399 27.82032,-4.2192 15.82198,0.7911 29.53436,-7.25174 12.78944,-7.38359 27.68847,-7.77914 17.93158,0.92295 33.75356,9.75689 1.45035,0.65925 2.50516,1.18665 1.18664,0.52739 2.10959,0.92294 1.0548,0.52741 1.5822,0.65925 l 0.39554,0.13186 h 0.13186 q 9.49318,1.3185 18.98637,0.26369 2.50515,-0.13185 5.14215,-0.26369 2.637,-0.13186 5.14214,-0.13186 10.02059,-0.39555 19.11823,3.6918 9.09764,4.08735 15.55828,11.73463 12.26204,15.69014 11.73464,35.73131 l 1.71405,111.94053 v 1.0548 q 0,0.26369 0,0.5274 0,0.2637 0,0.5274 z m -192.63263,25.31516 q 5.27399,5.40585 12.78943,6.19696 7.6473,0.13184 15.16273,-1.84591 0.79111,-0.13184 1.3185,-0.13184 4.08735,-1.97775 6.46065,-5.8014 4.21919,-6.19694 4.74659,-13.84423 0,-0.2637 0,-0.5274 0,-0.39555 0,-0.7911 0,-0.5274 0.13185,-1.0548 v -95.98669 q 0,-3.9555 2.76885,-6.72435 2.76884,-2.76884 6.72434,-2.76884 3.9555,0 6.72435,2.76884 2.76884,2.76885 2.76884,6.72435 v 97.04149 q 0,0.52739 -0.13185,1.0548 0,0.39555 0,0.92294 -0.39555,4.35105 1.18665,8.57024 1.58219,4.08735 4.7466,7.1199 9.36133,5.66954 20.17302,4.61475 4.87845,0.26369 9.22949,-1.84591 4.48289,-1.97775 7.38359,-5.80139 5.14215,-6.32879 5.5377,-14.63533 v -97.04149 q 0,-3.9555 2.76884,-6.72435 2.76885,-2.76884 6.72435,-2.76884 3.95549,0 6.72434,2.76884 2.76884,2.76885 2.76884,6.72435 v 85.7024 q 0.13186,0.39555 0.13186,0.7911 -0.65925,10.94354 3.55994,21.09597 1.84589,4.2192 5.66955,6.72435 5.53769,3.16439 11.86648,2.76884 7.64729,0.39555 14.37163,-3.29625 1.71405,-1.05479 3.1644,-2.50514 6.19694,-7.38359 7.64729,-16.87678 0.13185,-1.45035 0.2637,-2.24145 0.13185,-2.1096 0.13185,-3.55994 0.13185,-0.65925 0.13185,-1.97775 l -1.71405,-111.94053 v -0.13184 q 0.52741,-13.18499 -7.38359,-23.73297 -3.69179,-4.35105 -8.96579,-6.5925 -5.27399,-2.3733 -11.07539,-1.97774 -1.97775,0 -4.21919,0.13184 -2.24145,0 -4.87844,0.2637 -11.99834,1.18665 -23.86483,-0.65925 -5.93324,-1.5822 -11.33909,-4.48289 -11.86649,-6.85619 -25.44702,-7.77914 -10.41613,0.5274 -19.25007,5.80139 -18.06344,10.28429 -38.76386,9.22949 -10.02059,-0.7911 -19.38193,2.637 -9.36134,3.4281 -16.48123,10.54798 -11.73464,11.86649 -27.82032,15.95384 -5.80139,1.84589 -11.20723,4.61474 l -0.2637,0.13185 q -7.119902,4.7466 -11.075392,12.26203 -3.9555,7.51545 -3.82365,15.95384 v 63.55163 q -1.31849,15.82198 5.5377,30.32546 3.55994,4.74659 8.833932,7.25175 5.274,2.63699 12.13019,2.90069 6.8562,0.2637 12.13019,-2.3733 4.21919,-2.637 7.25174,-6.32879 0.13185,-0.2637 0.39555,-0.5274 0.39554,-0.39555 0.65925,-0.65925 v -86.2298 q 0,-3.82364 2.76884,-6.72435 2.76885,-2.76884 6.72435,-2.76884 3.95549,0 6.72434,2.76884 2.76885,2.90071 2.76885,6.72435 v 87.2846 q 0.26369,0.5274 0.5274,1.18665 1.84589,6.32879 6.85619,10.54798 z m 79.24176,30.85287 v 0 l 44.9608,-15.55828 q -3.6918,-2.637 -6.59249,-6.32879 -0.13186,0.26369 -0.2637,0.39555 -0.13185,0.2637 -0.26371,0.39555 -5.80139,7.25174 -14.10793,11.07538 -8.17469,3.9555 -17.40418,3.6918 -17.40418,1.18665 -31.90767,-8.70209 -2.24144,-1.8459 -4.08734,-4.08734 -3.03254,3.82364 -7.11989,6.72433 3.69179,8.30654 11.73464,12.39389 5.93324,2.637 12.39388,2.637 6.46065,0 12.39389,-2.50515 z"
         id="text10"
         aria-label="👊" /><text
         xml:space="preserve"
         style="font-size:204.365px;letter-spacing:-12.7728px;fill:#fb00fe;fill-opacity:1;fill-rule:nonzero;stroke-width:6.38641"
         x="275.63828"
         y="317.71255"
         id="text11"><tspan
           sodipodi:role="line"
           id="tspan11"
           x="275.63828"
           y="317.71255"
           style="fill:#f500fe;stroke-width:6.38641" /></text></g><text
       xml:space="preserve"
       style="font-size:97.0192px;letter-spacing:-6.0637px;fill:url(#linearGradient3);stroke:none;stroke-width:3.03118;stroke-dasharray:none"
       x="41.867393"
       y="118.55942"
       id="text1"><tspan
         sodipodi:role="line"
         id="tspan1"
         x="41.867393"
         y="118.55942"
         style="font-style:normal;font-variant:normal;font-weight:bold;font-stretch:normal;font-family:Inter;-inkscape-font-specification:'Inter Bold';fill:url(#linearGradient3);stroke:none;stroke-width:3.03118;stroke-dasharray:none">Knuckles</tspan></text><text
       xml:space="preserve"
       style="font-size:97.0192px;line-height:1;letter-spacing:-6.0637px;white-space:pre;inline-size:1277.13;fill:#3c3d41;fill-opacity:1;stroke:none;stroke-width:3.03118;stroke-dasharray:none"
       x="-55.816628"
       y="241.95465"
       id="text1-6"
       transform="matrix(0.6604068,0,0,0.6604068,83.769395,30.731513)"><tspan
         x="-55.816628"
         y="241.95465"
         id="tspan3"><tspan
           style="font-weight:bold;font-family:Inter;-inkscape-font-specification:'Inter Bold'"
           id="tspan2">Development Toolkit
</tspan></tspan><tspan
         x="-55.816628"
         y="340.24862"
         id="tspan5"><tspan
           style="font-weight:bold;font-family:Inter;-inkscape-font-specification:'Inter Bold'"
           id="tspan4">for Knockout.js</tspan></tspan></text></g></svg>
